<?xml version="1.0" standalone="yes"?>

<svg version="1.1" viewBox="0.0 0.0 284.0 100.0" fill="none" stroke="none" stroke-linecap="square" stroke-miterlimit="10" xmlns="http://www.w3.org/2000/svg" xmlns:xlink="http://www.w3.org/1999/xlink"><clipPath id="p.0"><path d="m0 0l284.0 0l0 100.0l-284.0 0l0 -100.0z" clip-rule="nonzero"></path></clipPath><g clip-path="url(#p.0)"><path fill="#000000" fill-opacity="0.0" d="m0 0l284.16272 0l0 100.0l-284.16272 0z" fill-rule="nonzero"></path><path fill="#1c4587" d="m2.8687663 44.637794l0 0c0 -22.865458 17.80285 -41.401573 39.76378 -41.401573l0 0c10.546009 0 20.660084 4.361939 28.11724 12.126241c7.4571533 7.7643013 11.646538 18.294952 11.646538 29.275333l0 0c0 22.865456 -17.802849 41.401573 -39.76378 41.401573l0 0c-21.960928 0 -39.76378 -18.536118 -39.76378 -41.401573z" fill-rule="nonzero"></path><path stroke="#f3f3f3" stroke-width="3.0" stroke-linejoin="round" stroke-linecap="butt" d="m2.8687663 44.637794l0 0c0 -22.865458 17.80285 -41.401573 39.76378 -41.401573l0 0c10.546009 0 20.660084 4.361939 28.11724 12.126241c7.4571533 7.7643013 11.646538 18.294952 11.646538 29.275333l0 0c0 22.865456 -17.802849 41.401573 -39.76378 41.401573l0 0c-21.960928 0 -39.76378 -18.536118 -39.76378 -41.401573z" fill-rule="nonzero"></path><path fill="#000000" fill-opacity="0.0" d="m78.78739 -3.511811l144.44095 0l0 109.16535l-144.44095 0z" fill-rule="nonzero"></path><path fill="#f3f3f3" d="m98.75614 66.92819q-1.6875 0 -3.140625 -1.484375q-1.453125 -1.484375 -2.53125 -3.984375q-1.078125 -2.5 -1.6875 -5.796875q-0.609375 -3.296875 -0.609375 -6.921875q0 -2.78125 0.40625 -6.046875q0.40625 -3.265625 1.1875 -6.734375q0.78125 -3.46875 1.859375 -6.96875q1.078125 -3.5 2.4375 -6.71875q1.359375 -3.21875 2.953125 -6.015625q1.59375 -2.796876 3.34375 -4.875001q1.75 -2.078125 3.65625 -3.265625q1.90625 -1.1875 3.875 -1.1875q1.34375 0 2.21875 0.609375q0.875 0.609375 1.375 1.609375q0.5 1.0 0.703125 2.265625q0.203125 1.265625 0.203125 2.578125q0 2.937501 -0.671875 5.984376q-0.671875 3.046875 -1.8125 6.125q-1.140625 3.078125 -2.640625 6.171875q-1.5 3.09375 -3.125 6.140625q-1.625 3.046875 -3.265625 6.0q-1.640625 2.953125 -3.078125 5.765625q-0.15625 0.3125 -0.328125 0.8125q-0.171875 0.5 -0.328125 1.078125q-0.15625 0.578125 -0.3125 1.234375q-0.15625 0.65625 -0.25 1.28125l0 0.4375q0 0.8125 0.171875 1.578125q0.171875 0.765625 0.421875 1.375q0.25 0.609375 0.53125 0.96875q0.28125 0.359375 0.53125 0.359375q0.59375 0 1.359375 -0.25q0.765625 -0.25 1.625 -0.671875q0.859375 -0.421875 1.765625 -0.96875q0.90625 -0.546875 1.75 -1.109375q1.96875 -1.3125 4.125 -3.03125l2.5625 6.5625q-2.78125 2.0 -5.5 3.5625q-1.1875 0.65625 -2.453125 1.296875q-1.265625 0.640625 -2.546875 1.140625q-1.28125 0.5 -2.5 0.796875q-1.21875 0.296875 -2.28125 0.296875zm0.03125 -25.0q1.40625 -2.5 2.984375 -5.625q1.578125 -3.125 2.984375 -6.4375q1.40625 -3.3125 2.4375 -6.609375q1.03125 -3.296875 1.3125 -6.140625q0 -0.90625 -0.046875 -1.546876q-0.046875 -0.640625 -0.296875 -0.640625q-0.90625 0 -1.953125 1.171876q-1.046875 1.171875 -2.09375 3.171875q-1.046875 2.0 -2.0 4.65625q-0.953125 2.65625 -1.703125 5.65625q-0.75 3.0 -1.1875 6.171875q-0.4375 3.171875 -0.4375 6.171875zm43.656242 17.34375q-0.71875 1.0 -1.921875 2.34375q-1.203125 1.34375 -2.703125 2.5625q-1.5 1.21875 -3.21875 2.0625q-1.71875 0.84375 -3.4375 0.84375q-2.0625 0 -3.4374924 -1.328125q-1.375 -1.328125 -2.375 -3.859375q-0.75 0.875 -1.84375 1.78125q-1.09375 0.90625 -2.390625 1.640625q-1.296875 0.734375 -2.703125 1.203125q-1.40625 0.46875 -2.8125 0.46875q-1.5 0 -2.921875 -0.609375q-1.421875 -0.609375 -2.515625 -1.75q-1.09375 -1.140625 -1.75 -2.78125q-0.65625 -1.640625 -0.65625 -3.703125q0 -2.34375 0.65625 -4.8125q0.65625 -2.46875 1.8125 -4.828125q1.15625 -2.359375 2.734375 -4.453125q1.578125 -2.09375 3.453125 -3.65625q1.875 -1.5625 3.953125 -2.484375q2.078125 -0.921875 4.234375 -0.921875q0.71875 0 1.125 0.28125q0.40625 0.28125 0.671875 0.640625q0.265625 0.359375 0.515625 0.703125q0.25 0.34375 0.625 0.5q0.375 0.15625 0.7656174 0.203125q0.390625 0.046875 0.796875 0.046875q0.34375 0 0.703125 -0.015625q0.359375 -0.015625 0.703125 -0.015625q0.46875 0 0.875 0.09375q0.40625 0.09375 0.71875 0.40625q0.3125 0.3125 0.484375 0.875q0.171875 0.5625 0.171875 1.53125q0 1.5 -0.3125 3.328125q-0.3125 1.828125 -0.6875 3.75q-0.375 1.921875 -0.6875 3.84375q-0.3125 1.921875 -0.3125 3.640625q0 1.46875 0.265625 2.296875q0.265625 0.828125 1.140625 0.828125q0.65625 0 1.375 -0.328125q0.71875 -0.328125 1.453125 -0.859375q0.734375 -0.53125 1.46875 -1.203125q0.734375 -0.671875 1.390625 -1.390625q1.53125 -1.6875 3.09375 -3.8125l1.5 6.9375zm-26.687492 -2.46875q0 0.78125 0.109375 1.515625q0.109375 0.734375 0.390625 1.3125q0.28125 0.578125 0.75 0.9375q0.46875 0.359375 1.1875 0.359375q1.15625 0 2.09375 -1.0q0.9375 -1.0 1.625 -2.40625q0.6875 -1.40625 1.109375 -2.90625q0.421875 -1.5 0.546875 -2.5l1.90625 -9.1875q-1.28125 0 -2.5 0.640625q-1.21875 0.640625 -2.296875 1.734375q-1.078125 1.09375 -1.984375 2.5q-0.90625 1.40625 -1.5625 2.953125q-0.65625 1.546875 -1.015625 3.109375q-0.359375 1.5625 -0.359375 2.9375zm35.906242 6.84375q-1.6875 1.5 -3.515625 2.421875q-1.828125 0.921875 -3.546875 0.921875q-1.5 0 -2.921875 -0.609375q-1.421875 -0.609375 -2.515625 -1.75q-1.09375 -1.140625 -1.75 -2.78125q-0.65625 -1.640625 -0.65625 -3.703125q0 -2.34375 0.65625 -4.8125q0.65625 -2.46875 1.8125 -4.828125q1.15625 -2.359375 2.734375 -4.453125q1.578125 -2.09375 3.453125 -3.65625q1.875 -1.5625 3.953125 -2.484375q2.078125 -0.921875 4.234375 -0.921875q0.71875 0 1.125 0.28125q0.40625 0.28125 0.671875 0.640625q0.265625 0.359375 0.515625 0.703125q0.25 0.34375 0.625 0.5q0.375 0.15625 0.765625 0.203125q0.390625 0.046875 0.796875 0.046875q0.34375 0 0.703125 -0.015625q0.359375 -0.015625 0.703125 -0.015625q0.46875 0 0.875 0.09375q0.40625 0.09375 0.71875 0.40625q0.3125 0.3125 0.484375 0.875q0.171875 0.5625 0.171875 1.53125q0 0.8125 -0.125 2.1875q-0.125 1.375 -0.34375 3.0625q-0.21875 1.6875 -0.484375 3.578125q-0.265625 1.890625 -0.546875 3.703125q-0.65625 4.3125 -1.5 9.21875q0.9375 -0.53125 2.03125 -1.3125q1.09375 -0.78125 2.4375 -2.09375q1.34375 -1.3125 3.0 -3.296875q1.65625 -1.984375 3.71875 -4.953125l1.5 6.9375q-0.5625 0.96875 -1.453125 1.984375q-0.890625 1.015625 -1.96875 2.03125q-1.078125 1.015625 -2.25 1.96875q-1.171875 0.953125 -2.296875 1.796875q-2.65625 2.0 -5.71875 3.875q-0.59375 3.34375 -1.40625 6.515625q-0.8125 3.171875 -1.921875 5.9375q-1.109375 2.765625 -2.53125 5.078125q-1.421875 2.3125 -3.21875 3.96875q-1.796875 1.65625 -4.015625 2.578125q-2.21875 0.921875 -4.90625 0.921875q-1.0625 0 -2.296875 -0.21875q-1.234375 -0.21875 -2.28125 -0.875q-1.046875 -0.65625 -1.734375 -1.875q-0.6875 -1.21875 -0.6875 -3.25q0 -1.40625 0.71875 -3.171875q0.71875 -1.765625 1.96875 -3.71875q1.25 -1.953125 2.96875 -4.0625q1.71875 -2.109375 3.734375 -4.203125q2.015625 -2.09375 4.21875 -4.125q2.203125 -2.03125 4.453125 -3.875l0.84375 -2.90625zm-6.90625 -6.84375q0 0.78125 0.109375 1.515625q0.109375 0.734375 0.390625 1.3125q0.28125 0.578125 0.75 0.9375q0.46875 0.359375 1.1875 0.359375q1.15625 0 2.09375 -1.0q0.9375 -1.0 1.625 -2.40625q0.6875 -1.40625 1.109375 -2.90625q0.421875 -1.5 0.546875 -2.5l1.90625 -9.1875q-1.28125 0 -2.5 0.640625q-1.21875 0.640625 -2.296875 1.734375q-1.078125 1.09375 -1.984375 2.5q-0.90625 1.40625 -1.5625 2.953125q-0.65625 1.546875 -1.015625 3.109375q-0.359375 1.5625 -0.359375 2.9375zm-4.625 33.125q1.3125 0 2.484375 -0.765625q1.171875 -0.765625 2.15625 -2.015625q0.984375 -1.25 1.796875 -2.84375q0.8125 -1.59375 1.4375 -3.265625q0.625 -1.671875 1.0625 -3.265625q0.4375 -1.59375 0.6875 -2.84375q-1.21875 0.8125 -2.484375 1.9375q-1.265625 1.125 -2.46875 2.421875q-1.203125 1.296875 -2.28125 2.671875q-1.078125 1.375 -1.890625 2.640625q-0.8125 1.265625 -1.28125 2.359375q-0.46875 1.09375 -0.46875 1.8125q0 1.15625 1.25 1.15625zm46.625 -29.65625q-1.125 1.03125 -2.796875 2.203125q-1.671875 1.171875 -3.609375 2.15625q-1.9375 0.984375 -3.953125 1.640625q-2.015625 0.65625 -3.828125 0.65625q-1.625 0 -2.734375 -0.453125q-1.109375 -0.453125 -1.796875 -1.265625q-0.6875 -0.8125 -0.984375 -1.984375q-0.296875 -1.171875 -0.296875 -2.578125q0 -1.96875 0.453125 -4.578125q0.453125 -2.609375 1.109375 -5.40625q0.65625 -2.796875 1.390625 -5.578125q0.734375 -2.78125 1.296875 -5.125q0.21875 -0.8125 0.875 -1.390625q0.65625 -0.578125 1.484375 -0.9375q0.828125 -0.359375 1.71875 -0.53125q0.890625 -0.171875 1.609375 -0.171875q1.3125 0 1.78125 0.484375q0.46875 0.484375 0.46875 1.296875q0 0.6875 -0.3125 1.984375q-0.3125 1.296875 -0.78125 2.9375q-0.46875 1.640625 -1.0 3.53125q-0.53125 1.890625 -1.0 3.78125q-0.46875 1.890625 -0.78125 3.6875q-0.3125 1.796875 -0.3125 3.234375q0 1.40625 0.3125 2.234375q0.3125 0.828125 1.28125 0.828125q1.125 0 2.5 -0.78125q1.375 -0.78125 2.78125 -1.890625q1.40625 -1.109375 2.75 -2.296875q1.34375 -1.1875 2.375 -2.03125l0 6.34375zm-13.96875 -32.125q0 -0.71875 0.3125 -1.625q0.3125 -0.90625 1.015625 -1.703125q0.703125 -0.796875 1.875 -1.34375q1.171875 -0.546875 2.921875 -0.546875q1.09375 0 2.0625 0.25q0.96875 0.25 1.6875 0.765625q0.71875 0.515625 1.140625 1.359375q0.421875 0.84375 0.421875 2.0q0 1.0625 -0.34375 2.0625q-0.34375 1.0 -1.09375 1.78125q-0.75 0.78125 -1.890625 1.265625q-1.140625 0.484375 -2.734375 0.484375q-2.75 0 -4.0625 -1.296875q-1.3125 -1.296875 -1.3125 -3.453125zm30.75 32.125q-1.125 1.03125 -2.796875 2.203125q-1.671875 1.171875 -3.609375 2.15625q-1.9375 0.984375 -3.953125 1.640625q-2.015625 0.65625 -3.828125 0.65625q-1.625 0 -2.734375 -0.453125q-1.109375 -0.453125 -1.796875 -1.265625q-0.6875 -0.8125 -0.984375 -1.984375q-0.296875 -1.171875 -0.296875 -2.578125q0 -1.96875 0.453125 -4.578125q0.453125 -2.609375 1.109375 -5.40625q0.65625 -2.796875 1.390625 -5.578125q0.734375 -2.78125 1.296875 -5.125q0.21875 -0.8125 0.875 -1.390625q0.65625 -0.578125 1.484375 -0.9375q0.828125 -0.359375 1.71875 -0.53125q0.890625 -0.171875 1.609375 -0.171875q1.3125 0 1.78125 0.484375q0.46875 0.484375 0.46875 1.296875q0 0.6875 -0.3125 1.984375q-0.3125 1.296875 -0.78125 2.9375q-0.46875 1.640625 -1.0 3.53125q-0.53125 1.890625 -1.0 3.78125q-0.46875 1.890625 -0.78125 3.6875q-0.3125 1.796875 -0.3125 3.234375q0 1.40625 0.3125 2.234375q0.3125 0.828125 1.28125 0.828125q1.125 0 2.5 -0.78125q1.375 -0.78125 2.78125 -1.890625q1.40625 -1.109375 2.75 -2.296875q1.34375 -1.1875 2.375 -2.03125l0 6.34375zm-13.96875 -32.125q0 -0.71875 0.3125 -1.625q0.3125 -0.90625 1.015625 -1.703125q0.703125 -0.796875 1.875 -1.34375q1.171875 -0.546875 2.921875 -0.546875q1.09375 0 2.0625 0.25q0.96875 0.25 1.6875 0.765625q0.71875 0.515625 1.140625 1.359375q0.421875 0.84375 0.421875 2.0q0 1.0625 -0.34375 2.0625q-0.34375 1.0 -1.09375 1.78125q-0.75 0.78125 -1.890625 1.265625q-1.140625 0.484375 -2.734375 0.484375q-2.75 0 -4.0625 -1.296875q-1.3125 -1.296875 -1.3125 -3.453125z" fill-rule="nonzero"></path><path fill="#000000" fill-opacity="0.0" d="m13.892388 3.2362204l68.50394 0l0 82.80315l-68.50394 0z" fill-rule="nonzero"></path><path fill="#f3f3f3" d="m28.92364 67.5778l8.687498 -40.71875l9.46875 -1.25l-4.53125 21.375q4.6875 -0.4375 7.9375 -5.375q3.25 -4.9375 3.25 -10.6875q0 -5.75 -4.34375 -7.71875q-1.5 -0.6875 -3.59375 -0.6875q-7.8125 0 -12.1875 4.09375q-4.374998 4.09375 -4.374998 11.46875q0 2.59375 0.71875 3.90625q0.15625 0.25 0.15625 0.4375q-5.125 0 -6.40625 -3.28125q-0.4375 -1.1875 -0.4375 -2.9375q0 -3.21875 2.015625 -6.203125q2.015625 -2.984375 5.203125 -5.296875q7.281248 -5.125 14.968748 -5.125q7.6875 0 11.53125 3.625q3.84375 3.625 3.84375 8.96875q0 3.0625 -1.265625 6.125q-1.265625 3.0625 -3.671875 5.53125q-5.375 5.5 -13.53125 5.5l-0.34375 0l-3.90625 18.25l-9.187498 0z" fill-rule="nonzero"></path></g></svg>

