<?xml version="1.0" standalone="yes"?>

<svg version="1.1" viewBox="0.0 0.0 450.0 100.0" fill="none" stroke="none" stroke-linecap="square" stroke-miterlimit="10" xmlns="http://www.w3.org/2000/svg" xmlns:xlink="http://www.w3.org/1999/xlink"><clipPath id="p.0"><path d="m0 0l450.0 0l0 100.0l-450.0 0l0 -100.0z" clip-rule="nonzero"></path></clipPath><g clip-path="url(#p.0)"><path fill="#000000" fill-opacity="0.0" d="m0 0l450.58792 0l0 100.0l-450.58792 0z" fill-rule="nonzero"></path><path fill="#1c4587" d="m2.8687663 44.637794l0 0c0 -22.865458 17.80285 -41.401573 39.76378 -41.401573l0 0c10.546009 0 20.660084 4.3619394 28.11724 12.126241c7.4571533 7.7643013 11.646538 18.294952 11.646538 29.275333l0 0c0 22.865456 -17.802849 41.401573 -39.76378 41.401573l0 0c-21.960928 0 -39.76378 -18.536118 -39.76378 -41.401573z" fill-rule="nonzero"></path><path stroke="#f3f3f3" stroke-width="3.0" stroke-linejoin="round" stroke-linecap="butt" d="m2.8687663 44.637794l0 0c0 -22.865458 17.80285 -41.401573 39.76378 -41.401573l0 0c10.546009 0 20.660084 4.3619394 28.11724 12.126241c7.4571533 7.7643013 11.646538 18.294952 11.646538 29.275333l0 0c0 22.865456 -17.802849 41.401573 -39.76378 41.401573l0 0c-21.960928 0 -39.76378 -18.536118 -39.76378 -41.401573z" fill-rule="nonzero"></path><path fill="#000000" fill-opacity="0.0" d="m78.788216 12.488189l438.89764 0l0 109.16535l-438.89764 0z" fill-rule="nonzero"></path><path fill="#f3f3f3" d="m96.52259 70.12819q-1.34375 0 -2.5 -1.171875q-1.15625 -1.1875 -2.015625 -3.171875q-0.859375 -2.0 -1.34375 -4.625q-0.484375 -2.640625 -0.484375 -5.53125q0 -2.203125 0.3125 -4.8125q0.328125 -2.609375 0.953125 -5.359375q0.625 -2.765625 1.484375 -5.546875q0.859375 -2.796875 1.9375 -5.359375q1.09375 -2.578125 2.359375 -4.796875q1.265625 -2.234375 2.65625 -3.890625q1.40625 -1.65625 2.921875 -2.59375q1.515625 -0.953125 3.09375 -0.953125q1.0625 0 1.75 0.484375q0.703125 0.484375 1.09375 1.28125q0.40625 0.796875 0.5625 1.8125q0.171875 1.0 0.171875 2.046875q0 2.34375 -0.53125 4.78125q-0.53125 2.421875 -1.453125 4.875q-0.90625 2.453125 -2.109375 4.921875q-1.1875 2.453125 -2.484375 4.890625q-1.28125 2.421875 -2.59375 4.78125q-1.3125 2.34375 -2.453125 4.59375q-0.125 0.25 -0.265625 0.65625q-0.140625 0.390625 -0.265625 0.859375q-0.125 0.453125 -0.25 0.984375q-0.109375 0.515625 -0.1875 1.0l0 0.359375q0 0.640625 0.125 1.25q0.140625 0.609375 0.34375 1.09375q0.203125 0.484375 0.421875 0.78125q0.21875 0.28125 0.421875 0.28125q0.46875 0 1.078125 -0.1875q0.625 -0.203125 1.296875 -0.53125q0.6875 -0.34375 1.40625 -0.78125q0.734375 -0.4375 1.40625 -0.890625q1.5625 -1.046875 3.28125 -2.40625l2.046875 5.21875q-2.21875 1.59375 -4.390625 2.84375q-0.9375 0.515625 -1.953125 1.03125q-1.0 0.515625 -2.03125 0.921875q-1.015625 0.390625 -1.984375 0.625q-0.96875 0.234375 -1.828125 0.234375zm0.03125 -19.921875q1.125 -2.0 2.375 -4.484375q1.265625 -2.484375 2.375 -5.125q1.125 -2.640625 1.9375 -5.265625q0.828125 -2.625 1.0625 -4.890625q0 -0.734375 -0.046875 -1.234375q-0.03125 -0.515625 -0.234375 -0.515625q-0.71875 0 -1.5625 0.9375q-0.828125 0.9375 -1.671875 2.53125q-0.828125 1.59375 -1.59375 3.703125q-0.75 2.109375 -1.34375 4.5q-0.59375 2.390625 -0.953125 4.921875q-0.34375 2.53125 -0.34375 4.921875zm34.69108 13.828125q-0.578125 0.796875 -1.53125 1.875q-0.953125 1.0625 -2.1562424 2.03125q-1.1875 0.96875 -2.5625 1.640625q-1.375 0.671875 -2.734375 0.671875q-1.640625 0 -2.75 -1.0625q-1.09375 -1.0625 -1.890625 -3.078125q-0.59375 0.703125 -1.46875 1.421875q-0.875 0.71875 -1.90625 1.3125q-1.03125 0.578125 -2.15625 0.953125q-1.109375 0.375 -2.234375 0.375q-1.1875 0 -2.328125 -0.484375q-1.125 -0.484375 -2.0 -1.390625q-0.875 -0.90625 -1.40625 -2.21875q-0.515625 -1.3125 -0.515625 -2.953125q0 -1.859375 0.515625 -3.828125q0.53125 -1.96875 1.453125 -3.84375q0.921875 -1.890625 2.171875 -3.546875q1.265625 -1.671875 2.75 -2.921875q1.5 -1.25 3.15625 -1.984375q1.65625 -0.734375 3.375 -0.734375q0.578125 0 0.890625 0.234375q0.328125 0.21875 0.53125 0.515625q0.21875 0.28125 0.421875 0.5625q0.203125 0.265625 0.5 0.390625q0.296875 0.125 0.609375 0.15625q0.3125 0.03125 0.640625 0.03125q0.265625 0 0.546875 0q0.296875 -0.015625 0.5625 -0.015625q0.375 0 0.703125 0.078125q0.328125 0.0625 0.5625 0.3125q0.25 0.25 0.390625 0.703125q0.140625 0.453125 0.140625 1.21875q0 1.1875 -0.25 2.65625q-0.25 1.453125 -0.546875 2.984375q-0.296875 1.53125 -0.546875 3.0625q-0.25 1.53125 -0.25 2.90625q0 1.171875 0.203125 1.828125q0.21875 0.65625 0.921875 0.65625q0.515625 0 1.09375 -0.25q0.578125 -0.265625 1.15625 -0.6875q0.578125 -0.4375 1.15625 -0.96875q0.59375 -0.53125 1.125 -1.109375q1.2187424 -1.34375 2.4687424 -3.03125l1.1875 5.53125zm-21.265617 -1.96875q0 0.609375 0.078125 1.203125q0.09375 0.578125 0.3125 1.046875q0.234375 0.453125 0.609375 0.75q0.375 0.28125 0.9375 0.28125q0.921875 0 1.671875 -0.796875q0.75 -0.796875 1.296875 -1.90625q0.546875 -1.125 0.875 -2.3125q0.34375 -1.203125 0.4375 -2.0l1.53125 -7.328125q-1.03125 0 -2.0 0.515625q-0.96875 0.5 -1.828125 1.375q-0.859375 0.875 -1.578125 2.0q-0.71875 1.109375 -1.25 2.34375q-0.515625 1.234375 -0.8125 2.484375q-0.28125 1.234375 -0.28125 2.34375zm28.453606 5.453125q-1.34375 1.1875 -2.796875 1.921875q-1.453125 0.734375 -2.828125 0.734375q-1.1875 0 -2.328125 -0.484375q-1.125 -0.484375 -2.0 -1.390625q-0.8749924 -0.90625 -1.4062424 -2.21875q-0.515625 -1.3125 -0.515625 -2.953125q0 -1.859375 0.515625 -3.828125q0.53125 -1.96875 1.4531174 -3.84375q0.921875 -1.890625 2.171875 -3.546875q1.265625 -1.671875 2.75 -2.921875q1.5 -1.25 3.15625 -1.984375q1.65625 -0.734375 3.375 -0.734375q0.578125 0 0.890625 0.234375q0.328125 0.21875 0.53125 0.515625q0.21875 0.28125 0.421875 0.5625q0.203125 0.265625 0.5 0.390625q0.296875 0.125 0.609375 0.15625q0.3125 0.03125 0.640625 0.03125q0.265625 0 0.546875 0q0.296875 -0.015625 0.5625 -0.015625q0.375 0 0.703125 0.078125q0.328125 0.0625 0.5625 0.3125q0.25 0.25 0.390625 0.703125q0.140625 0.453125 0.140625 1.21875q0 0.640625 -0.109375 1.75q-0.09375 1.09375 -0.265625 2.4375q-0.171875 1.34375 -0.390625 2.859375q-0.203125 1.5 -0.421875 2.9375q-0.53125 3.4375 -1.203125 7.34375q0.75 -0.421875 1.609375 -1.046875q0.875 -0.625 1.9375 -1.65625q1.078125 -1.046875 2.390625 -2.625q1.328125 -1.59375 2.984375 -3.953125l1.1875 5.53125q-0.453125 0.765625 -1.15625 1.578125q-0.703125 0.8125 -1.5625 1.625q-0.859375 0.796875 -1.796875 1.5625q-0.9375 0.75 -1.828125 1.421875q-2.125 1.59375 -4.5625 3.09375q-0.46875 2.671875 -1.125 5.1875q-0.640625 2.53125 -1.53125 4.734375q-0.875 2.203125 -2.015625 4.046875q-1.125 1.84375 -2.5625 3.15625q-1.4375 1.328125 -3.203125 2.0625q-1.765625 0.734375 -3.90625 0.734375q-0.84375 0 -1.8281174 -0.171875q-0.984375 -0.171875 -1.828125 -0.703125q-0.828125 -0.515625 -1.375 -1.5q-0.546875 -0.96875 -0.546875 -2.578125q0 -1.125 0.578125 -2.53125q0.5625 -1.40625 1.5625 -2.96875q1.0 -1.546875 2.359375 -3.234375q1.3749924 -1.671875 2.9843674 -3.34375q1.609375 -1.671875 3.359375 -3.296875q1.75 -1.609375 3.546875 -3.078125l0.671875 -2.3125zm-5.5 -5.453125q0 0.609375 0.078125 1.203125q0.09375 0.578125 0.3125 1.046875q0.234375 0.453125 0.609375 0.75q0.375 0.28125 0.9375 0.28125q0.921875 0 1.671875 -0.796875q0.75 -0.796875 1.296875 -1.90625q0.546875 -1.125 0.875 -2.3125q0.34375 -1.203125 0.4375 -2.0l1.53125 -7.328125q-1.03125 0 -2.0 0.515625q-0.96875 0.5 -1.828125 1.375q-0.859375 0.875 -1.578125 2.0q-0.71875 1.109375 -1.25 2.34375q-0.515625 1.234375 -0.8125 2.484375q-0.28125 1.234375 -0.28125 2.34375zm-3.6875 26.390625q1.046875 0 1.984375 -0.609375q0.9375 -0.609375 1.71875 -1.609375q0.78125 -1.0 1.421875 -2.265625q0.65625 -1.265625 1.15625 -2.609375q0.5 -1.328125 0.84375 -2.59375q0.34375 -1.265625 0.546875 -2.265625q-0.96875 0.640625 -1.984375 1.53125q-1.0 0.90625 -1.96875 1.9375q-0.953125 1.03125 -1.8125 2.125q-0.859375 1.109375 -1.515625 2.109375q-0.640625 1.015625 -1.015625 1.875q-0.375 0.875 -0.375 1.453125q0 0.921875 1.0 0.921875zm37.00049 -23.625q-0.890625 0.8125 -2.234375 1.75q-1.328125 0.9375 -2.875 1.71875q-1.546875 0.78125 -3.15625 1.3125q-1.59375 0.515625 -3.046875 0.515625q-1.28125 0 -2.171875 -0.359375q-0.890625 -0.359375 -1.4375 -1.0q-0.546875 -0.65625 -0.78125 -1.59375q-0.234375 -0.9375 -0.234375 -2.046875q0 -1.578125 0.359375 -3.65625q0.359375 -2.078125 0.875 -4.296875q0.53125 -2.234375 1.109375 -4.453125q0.59375 -2.21875 1.046875 -4.078125q0.171875 -0.65625 0.6875 -1.109375q0.53125 -0.46875 1.1875 -0.75q0.65625 -0.28125 1.359375 -0.421875q0.71875 -0.140625 1.296875 -0.140625q1.046875 0 1.421875 0.390625q0.375 0.375 0.375 1.03125q0 0.546875 -0.25 1.578125q-0.25 1.03125 -0.625 2.34375q-0.375 1.3125 -0.796875 2.8125q-0.421875 1.5 -0.796875 3.015625q-0.375 1.5 -0.625 2.9375q-0.25 1.421875 -0.25 2.578125q0 1.125 0.25 1.78125q0.25 0.65625 1.015625 0.65625q0.90625 0 2.0 -0.625q1.09375 -0.625 2.203125 -1.5q1.125 -0.890625 2.1875 -1.828125q1.078125 -0.953125 1.90625 -1.625l0 5.0625zm-11.125 -25.609375q0 -0.578125 0.234375 -1.296875q0.25 -0.71875 0.8125 -1.34375q0.5625 -0.640625 1.5 -1.078125q0.9375 -0.4375 2.328125 -0.4375q0.875 0 1.640625 0.203125q0.78125 0.1875 1.34375 0.609375q0.578125 0.40625 0.90625 1.078125q0.34375 0.671875 0.34375 1.59375q0 0.84375 -0.28125 1.640625q-0.265625 0.796875 -0.875 1.421875q-0.59375 0.625 -1.5 1.015625q-0.90625 0.375 -2.171875 0.375q-2.203125 0 -3.25 -1.03125q-1.03125 -1.03125 -1.03125 -2.75zm35.313675 24.8125q-0.578125 0.796875 -1.53125 1.875q-0.953125 1.0625 -2.15625 2.03125q-1.1875 0.96875 -2.5625 1.640625q-1.375 0.671875 -2.734375 0.671875q-1.640625 0 -2.75 -1.0625q-1.09375 -1.0625 -1.890625 -3.078125q-0.59375 0.703125 -1.46875 1.421875q-0.875 0.71875 -1.90625 1.3125q-1.03125 0.578125 -2.15625 0.953125q-1.109375 0.375 -2.234375 0.375q-1.1875 0 -2.328125 -0.484375q-1.125 -0.484375 -2.0 -1.390625q-0.875 -0.90625 -1.40625 -2.21875q-0.515625 -1.3125 -0.515625 -2.953125q0 -1.859375 0.515625 -3.828125q0.53125 -1.96875 1.453125 -3.84375q0.921875 -1.890625 2.171875 -3.546875q1.265625 -1.671875 2.75 -2.921875q1.5 -1.25 3.15625 -1.984375q1.65625 -0.734375 3.375 -0.734375q0.578125 0 0.890625 0.234375q0.328125 0.21875 0.53125 0.515625q0.21875 0.28125 0.421875 0.5625q0.203125 0.265625 0.5 0.390625q0.296875 0.125 0.609375 0.15625q0.3125 0.03125 0.640625 0.03125q0.265625 0 0.546875 0q0.296875 -0.015625 0.5625 -0.015625q0.375 0 0.703125 0.078125q0.328125 0.0625 0.5625 0.3125q0.25 0.25 0.390625 0.703125q0.140625 0.453125 0.140625 1.21875q0 1.1875 -0.25 2.65625q-0.25 1.453125 -0.546875 2.984375q-0.296875 1.53125 -0.546875 3.0625q-0.25 1.53125 -0.25 2.90625q0 1.171875 0.203125 1.828125q0.21875 0.65625 0.921875 0.65625q0.515625 0 1.09375 -0.25q0.578125 -0.265625 1.15625 -0.6875q0.578125 -0.4375 1.15625 -0.96875q0.59375 -0.53125 1.125 -1.109375q1.21875 -1.34375 2.46875 -3.03125l1.1875 5.53125zm-21.265625 -1.96875q0 0.609375 0.078125 1.203125q0.09375 0.578125 0.3125 1.046875q0.234375 0.453125 0.609375 0.75q0.375 0.28125 0.9375 0.28125q0.921875 0 1.671875 -0.796875q0.75 -0.796875 1.296875 -1.90625q0.546875 -1.125 0.875 -2.3125q0.34375 -1.203125 0.4375 -2.0l1.53125 -7.328125q-1.03125 0 -2.0 0.515625q-0.96875 0.5 -1.828125 1.375q-0.859375 0.875 -1.578125 2.0q-0.71875 1.109375 -1.25 2.34375q-0.515625 1.234375 -0.8125 2.484375q-0.28125 1.234375 -0.28125 2.34375zm18.172363 2.859375q0 -1.09375 0.125 -2.546875q0.125 -1.46875 0.328125 -3.078125q0.21875 -1.625 0.5 -3.296875q0.296875 -1.6875 0.609375 -3.203125q0.328125 -1.515625 0.65625 -2.78125q0.328125 -1.28125 0.640625 -2.109375q0.203125 -0.546875 0.40625 -0.859375q0.203125 -0.328125 0.453125 -0.515625q0.265625 -0.1875 0.640625 -0.25q0.390625 -0.0625 0.96875 -0.0625q0.65625 0 1.015625 0.0625q0.359375 0.0625 0.53125 0.296875q0.171875 0.234375 0.203125 0.6875q0.046875 0.453125 0.046875 1.21875q0 0.921875 0 2.234375q0 1.296875 0.046875 2.578125l0.28125 0q0.484375 -1.0 1.109375 -2.234375q0.625 -1.234375 1.4375 -2.296875q0.828125 -1.078125 1.875 -1.8125q1.046875 -0.734375 2.421875 -0.734375q0.46875 0 0.90625 0.171875q0.453125 0.15625 0.796875 0.453125q0.34375 0.296875 0.53125 0.734375q0.203125 0.4375 0.203125 0.984375q0 0.421875 -0.125 1.1875q-0.125 0.75 -0.28125 1.59375q-0.140625 0.828125 -0.265625 1.609375q-0.125 0.78125 -0.125 1.3125q0 0.890625 0.171875 1.5q0.171875 0.59375 0.453125 0.953125q0.296875 0.359375 0.65625 0.515625q0.359375 0.140625 0.765625 0.140625q1.109375 0 2.296875 -0.5q1.203125 -0.5 2.203125 -1.125q1.171875 -0.71875 2.296875 -1.640625l-0.375 5.828125q-0.65625 0.421875 -1.484375 0.953125q-0.8125 0.515625 -1.75 0.984375q-0.921875 0.453125 -1.9375 0.765625q-1.0 0.3125 -2.046875 0.3125q-1.875 0 -3.015625 -0.75q-1.140625 -0.765625 -1.828125 -2.0q-0.671875 -1.234375 -1.0 -2.765625q-0.3125 -1.53125 -0.515625 -3.09375l-0.390625 0l-4.453125 12.421875q-0.359375 0.96875 -0.671875 1.609375q-0.3125 0.625 -0.640625 1.03125q-0.3125 0.390625 -0.6875 0.5625q-0.375 0.15625 -0.828125 0.15625q-1.015625 0 -1.640625 -0.4375q-0.625 -0.4375 -0.96875 -1.171875q-0.328125 -0.734375 -0.4375 -1.65625q-0.109375 -0.9375 -0.109375 -1.9375zm36.51123 -0.09375q-0.890625 0.8125 -2.234375 1.75q-1.328125 0.9375 -2.875 1.71875q-1.546875 0.78125 -3.15625 1.3125q-1.59375 0.515625 -3.046875 0.515625q-1.28125 0 -2.171875 -0.359375q-0.890625 -0.359375 -1.4375 -1.0q-0.546875 -0.65625 -0.78125 -1.59375q-0.234375 -0.9375 -0.234375 -2.046875q0 -1.578125 0.359375 -3.65625q0.359375 -2.078125 0.875 -4.296875q0.53125 -2.234375 1.109375 -4.453125q0.59375 -2.21875 1.046875 -4.078125q0.171875 -0.65625 0.6875 -1.109375q0.53125 -0.46875 1.1875 -0.75q0.65625 -0.28125 1.359375 -0.421875q0.71875 -0.140625 1.296875 -0.140625q1.046875 0 1.421875 0.390625q0.375 0.375 0.375 1.03125q0 0.546875 -0.25 1.578125q-0.25 1.03125 -0.625 2.34375q-0.375 1.3125 -0.796875 2.8125q-0.421875 1.5 -0.796875 3.015625q-0.375 1.5 -0.625 2.9375q-0.25 1.421875 -0.25 2.578125q0 1.125 0.25 1.78125q0.25 0.65625 1.015625 0.65625q0.90625 0 2.0 -0.625q1.09375 -0.625 2.203125 -1.5q1.125 -0.890625 2.1875 -1.828125q1.078125 -0.953125 1.90625 -1.625l0 5.0625zm-11.125 -25.609375q0 -0.578125 0.234375 -1.296875q0.25 -0.71875 0.8125 -1.34375q0.5625 -0.640625 1.5 -1.078125q0.9375 -0.4375 2.328125 -0.4375q0.875 0 1.640625 0.203125q0.78125 0.1875 1.34375 0.609375q0.578125 0.40625 0.90625 1.078125q0.34375 0.671875 0.34375 1.59375q0 0.84375 -0.28125 1.640625q-0.265625 0.796875 -0.875 1.421875q-0.59375 0.625 -1.5 1.015625q-0.90625 0.375 -2.171875 0.375q-2.203125 0 -3.25 -1.03125q-1.03125 -1.03125 -1.03125 -2.75zm8.469925 21.34375q1.390625 -1.203125 2.265625 -2.0q0.875 -0.796875 1.5 -1.453125q0.625 -0.65625 1.125 -1.328125q0.515625 -0.671875 1.203125 -1.59375q0.703125 -0.921875 1.703125 -2.25q1.0 -1.34375 2.59375 -3.328125q0.3125 -0.453125 0.703125 -0.875q0.40625 -0.421875 0.890625 -0.75q0.484375 -0.34375 1.0625 -0.546875q0.59375 -0.21875 1.328125 -0.21875q1.1875 0 1.828125 0.265625q0.65625 0.25 0.953125 0.625q0.296875 0.375 0.34375 0.796875q0.0625 0.40625 0.0625 0.703125q0 0.59375 -0.484375 1.328125q-0.46875 0.71875 -1.046875 1.390625q-0.5625 0.671875 -1.078125 1.234375q-0.515625 0.546875 -0.578125 0.828125q0 0.765625 0.109375 1.40625q0.109375 0.640625 0.296875 1.25q0.1875 0.609375 0.375 1.296875q0.203125 0.671875 0.390625 1.578125q0.1875 0.890625 0.296875 2.0625q0.125 1.171875 0.125 2.765625q0.890625 -0.59375 1.921875 -1.078125q1.03125 -0.484375 2.15625 -1.0q1.125 -0.53125 2.296875 -1.171875q1.1875 -0.640625 2.390625 -1.53125l0.015625 5.578125q-1.546875 1.1875 -3.578125 2.234375q-2.015625 1.046875 -4.25 1.84375q-2.234375 0.796875 -4.515625 1.265625q-2.265625 0.453125 -4.3125 0.453125q-1.46875 0 -2.75 -0.265625q-1.265625 -0.28125 -2.21875 -0.859375q-0.953125 -0.59375 -1.5625 -1.53125q-0.59375 -0.953125 -0.71875 -2.296875q-0.34375 0.078125 -0.6875 0.109375q-0.328125 0.015625 -0.65625 0.015625q-0.390625 0 -0.75 -0.015625q-0.34375 -0.03125 -0.59375 -0.1875q-0.25 -0.171875 -0.40625 -0.53125q-0.140625 -0.359375 -0.140625 -1.03125q0 -0.59375 0.296875 -1.109375q0.296875 -0.515625 0.6875 -0.90625q0.40625 -0.40625 0.796875 -0.703125q0.40625 -0.296875 0.609375 -0.46875zm3.1875 3.1875q0.296875 0 0.65625 0.375q0.359375 0.375 0.828125 0.828125q0.484375 0.4375 1.109375 0.8125q0.625 0.375 1.421875 0.375q0.96875 0 1.59375 -0.3125q0.640625 -0.328125 1.015625 -0.859375q0.375 -0.546875 0.515625 -1.25q0.15625 -0.71875 0.15625 -1.484375q0 -0.671875 -0.09375 -1.375q-0.078125 -0.703125 -0.21875 -1.328125q-0.140625 -0.640625 -0.296875 -1.203125q-0.15625 -0.5625 -0.28125 -0.953125l-6.40625 6.375zm29.36409 1.71875q0 -0.328125 0.046875 -0.921875q0.046875 -0.59375 0.140625 -1.359375q0.109375 -0.78125 0.234375 -1.640625q0.125 -0.859375 0.25 -1.703125q0.28125 -2.0 0.671875 -4.28125l-0.375 0q-0.296875 0.375 -0.6875 1.125q-0.375 0.734375 -1.078125 2.1875q-0.703125 1.4375 -1.78125 3.75q-1.078125 2.296875 -2.796875 5.75q-0.5 1.03125 -1.171875 1.390625q-0.65625 0.359375 -1.453125 0.359375q-1.015625 0 -1.640625 -0.4375q-0.625 -0.4375 -0.96875 -1.171875q-0.328125 -0.734375 -0.4375 -1.65625q-0.109375 -0.9375 -0.109375 -1.9375q0 -1.015625 0.125 -2.40625q0.125 -1.40625 0.3125 -2.953125q0.203125 -1.546875 0.46875 -3.140625q0.265625 -1.609375 0.546875 -3.078125q0.296875 -1.46875 0.59375 -2.6875q0.296875 -1.21875 0.546875 -2.0q0.25 -0.796875 0.46875 -1.265625q0.21875 -0.46875 0.5 -0.734375q0.296875 -0.265625 0.6875 -0.34375q0.40625 -0.09375 1.03125 -0.09375q0.9375 0 1.46875 0.0625q0.546875 0.0625 0.796875 0.296875q0.265625 0.234375 0.3125 0.6875q0.0625 0.453125 0.0625 1.21875q0 0.421875 -0.046875 0.96875q-0.03125 0.546875 -0.109375 1.171875q-0.078125 0.625 -0.171875 1.28125q-0.078125 0.65625 -0.171875 1.28125q-0.21875 1.46875 -0.46875 3.046875l0.265625 0.296875q0.046875 -0.078125 0.53125 -0.953125q0.5 -0.875 1.203125 -2.09375q0.703125 -1.21875 1.53125 -2.546875q0.828125 -1.328125 1.5625 -2.359375q0.734375 -1.015625 1.53125 -1.6875q0.8125 -0.671875 1.9375 -0.671875q1.046875 0 1.78125 0.609375q0.75 0.609375 0.75 1.734375q0 0.96875 -0.125 1.84375q-0.109375 0.875 -0.296875 1.703125q-0.1875 0.8125 -0.390625 1.59375q-0.203125 0.78125 -0.375 1.609375q-0.125 0.5625 -0.15625 0.71875q-0.015625 0.140625 -0.015625 0.203125l0.265625 0.296875q0.0625 -0.078125 0.578125 -0.9375q0.515625 -0.859375 1.28125 -2.078125q0.765625 -1.21875 1.625 -2.5625q0.859375 -1.34375 1.59375 -2.375q0.734375 -0.984375 1.453125 -1.671875q0.71875 -0.6875 1.765625 -0.6875q1.171875 0 1.984375 0.609375q0.8125 0.609375 0.8125 1.734375q0 1.71875 -0.1875 3.265625q-0.171875 1.53125 -0.390625 3.03125q-0.21875 1.5 -0.40625 3.03125q-0.171875 1.53125 -0.171875 3.25q0 1.34375 0.34375 2.1875q0.359375 0.84375 0.859375 0.84375q0.515625 0 1.09375 -0.21875q0.578125 -0.234375 1.171875 -0.578125q0.59375 -0.34375 1.15625 -0.796875q0.578125 -0.46875 1.109375 -0.96875q1.21875 -1.140625 2.40625 -2.59375l0.4375 5.875q-1.109375 0.875 -2.1875 1.8125q-1.078125 0.9375 -2.296875 1.703125q-1.203125 0.75 -2.65625 1.234375q-1.4375 0.484375 -3.25 0.484375q-0.890625 0 -1.515625 -0.578125q-0.609375 -0.59375 -0.984375 -1.640625q-0.359375 -1.046875 -0.53125 -2.453125q-0.15625 -1.421875 -0.15625 -3.09375q0 -1.578125 0.109375 -3.328125q0.109375 -1.75 0.3125 -3.546875l-0.375 0l-5.046875 12.875q-0.65625 1.046875 -1.453125 1.40625q-0.796875 0.359375 -1.84375 0.359375q-0.796875 0 -1.265625 -0.4375q-0.46875 -0.4375 -0.734375 -1.109375q-0.265625 -0.6875 -0.359375 -1.515625q-0.078125 -0.828125 -0.078125 -1.59375zm43.2601 4.65625q-2.28125 0 -4.015625 -0.84375q-1.734375 -0.84375 -2.90625 -2.265625q-1.15625 -1.421875 -1.765625 -3.28125q-0.59375 -1.875 -0.59375 -3.890625q0 -1.453125 0.296875 -3.015625q0.296875 -1.5625 0.875 -3.0625q0.59375 -1.515625 1.453125 -2.890625q0.859375 -1.375 1.984375 -2.40625q1.140625 -1.03125 2.53125 -1.640625q1.40625 -0.609375 3.0625 -0.609375q1.421875 0 2.625 0.4375q1.21875 0.4375 2.078125 1.21875q0.859375 0.765625 1.34375 1.828125q0.484375 1.046875 0.484375 2.265625q0 0.84375 -0.234375 1.671875q-0.21875 0.828125 -0.65625 1.484375q-0.421875 0.65625 -1.046875 1.0625q-0.625 0.390625 -1.40625 0.390625q-1.15625 0 -1.53125 -0.625q-0.359375 -0.625 -0.359375 -1.71875q0 -0.453125 0.03125 -0.9375q0.046875 -0.5 0.046875 -0.90625q0 -0.59375 -0.125 -0.984375q-0.125 -0.40625 -0.546875 -0.40625q-1.015625 0 -1.75 0.484375q-0.71875 0.484375 -1.234375 1.28125q-0.5 0.78125 -0.796875 1.765625q-0.296875 0.96875 -0.484375 1.953125q-0.171875 0.96875 -0.21875 1.859375q-0.046875 0.875 -0.046875 1.46875q0 0.90625 0.15625 1.875q0.171875 0.96875 0.609375 1.78125q0.453125 0.796875 1.21875 1.34375q0.78125 0.53125 2.0 0.53125q1.203125 0 2.640625 -0.734375q1.4375 -0.734375 2.890625 -1.84375q1.46875 -1.125 2.78125 -2.46875q1.328125 -1.359375 2.265625 -2.546875l1.71875 2.890625q-1.859375 2.65625 -4.03125 4.75q-0.921875 0.90625 -2.0 1.75q-1.078125 0.84375 -2.265625 1.5q-1.1875 0.65625 -2.46875 1.078125q-1.28125 0.40625 -2.609375 0.40625zm19.11084 -15.484375q1.015625 -1.34375 2.28125 -2.890625q1.28125 -1.546875 2.640625 -2.875q1.375 -1.34375 2.734375 -2.21875q1.359375 -0.890625 2.546875 -0.890625q0.296875 0 0.671875 0.125q0.375 0.109375 0.703125 0.40625q0.34375 0.296875 0.5625 0.828125q0.234375 0.53125 0.234375 1.390625q0 1.6875 -0.484375 3.296875q-0.46875 1.609375 -1.03125 3.21875q-0.546875 1.59375 -1.015625 3.265625q-0.453125 1.671875 -0.453125 3.484375q0 1.0 0.296875 1.59375q0.296875 0.59375 0.765625 0.59375q0.59375 0 1.265625 -0.25q0.6875 -0.25 1.359375 -0.640625q0.671875 -0.40625 1.3125 -0.90625q0.640625 -0.515625 1.21875 -1.0625q1.375 -1.265625 2.6875 -2.890625l0.421875 6.625q-0.4375 0.34375 -1.125 0.875q-0.6875 0.515625 -1.53125 1.109375q-0.828125 0.578125 -1.796875 1.1875q-0.96875 0.59375 -1.953125 1.0625q-0.984375 0.453125 -1.96875 0.75q-0.984375 0.296875 -1.875 0.296875q-1.375 0 -2.390625 -0.734375q-1.0 -0.734375 -1.65625 -1.859375q-0.640625 -1.140625 -0.96875 -2.484375q-0.3125 -1.34375 -0.3125 -2.546875q0 -0.796875 0.203125 -1.78125q0.21875 -0.984375 0.53125 -1.96875q0.3125 -1.0 0.6875 -1.9375q0.390625 -0.953125 0.71875 -1.703125q0.34375 -0.75 0.59375 -1.21875q0.25 -0.46875 0.328125 -0.546875l-0.53125 -0.078125q-0.421875 0.28125 -1.4375 1.40625q-1.0 1.109375 -2.28125 2.8125q-1.265625 1.703125 -2.625 3.84375q-1.34375 2.125 -2.4375 4.390625q-0.546875 1.125 -0.90625 1.953125q-0.34375 0.828125 -0.6875 1.375q-0.328125 0.53125 -0.734375 0.8125q-0.390625 0.265625 -1.015625 0.265625q-0.828125 0 -1.296875 -0.46875q-0.46875 -0.484375 -0.71875 -1.265625q-0.25 -0.78125 -0.328125 -1.765625q-0.078125 -1.0 -0.078125 -2.046875q0 -1.671875 0.03125 -4.375q0.046875 -2.703125 0.25 -5.984375q0.203125 -3.296875 0.578125 -6.921875q0.375 -3.640625 1.046875 -7.1875q0.6875 -3.546875 1.71875 -6.765625q1.046875 -3.234375 2.515625 -5.6875q1.484375 -2.453125 3.46875 -3.890625q2.0 -1.453125 4.59375 -1.453125q1.34375 0 2.203125 0.40625q0.859375 0.390625 1.359375 1.109375q0.515625 0.71875 0.71875 1.734375q0.203125 1.015625 0.203125 2.25q0 1.84375 -0.53125 4.09375q-0.515625 2.234375 -1.375 4.65625q-0.859375 2.40625 -1.953125 4.890625q-1.09375 2.46875 -2.25 4.796875q-1.140625 2.328125 -2.25 4.40625q-1.109375 2.0625 -1.953125 3.625l0.5 0.359375zm2.21875 -15.390625q1.46875 -3.8125 2.125 -6.421875q0.65625 -2.625 0.65625 -3.859375q0 -1.90625 -0.5 -1.90625q-0.640625 0 -1.921875 2.125q-1.265625 2.109375 -2.984375 6.15625q-0.421875 1.359375 -0.78125 2.828125q-0.359375 1.46875 -0.65625 2.9375q-0.28125 1.453125 -0.515625 2.859375q-0.234375 1.40625 -0.40625 2.671875q-0.421875 2.96875 -0.640625 5.796875q0.671875 -1.5625 1.46875 -3.40625q0.796875 -1.84375 1.5625 -3.640625q0.765625 -1.8125 1.453125 -3.421875q0.6875 -1.609375 1.140625 -2.71875zm22.96222 30.875q-2.34375 0 -4.109375 -0.84375q-1.75 -0.84375 -2.921875 -2.28125q-1.171875 -1.4375 -1.765625 -3.3125q-0.578125 -1.875 -0.578125 -3.953125q0 -1.390625 0.28125 -2.9375q0.28125 -1.5625 0.828125 -3.046875q0.5625 -1.5 1.40625 -2.859375q0.859375 -1.359375 1.984375 -2.390625q1.140625 -1.03125 2.546875 -1.640625q1.40625 -0.609375 3.125 -0.609375q1.390625 0 2.578125 0.453125q1.203125 0.4375 2.078125 1.25q0.890625 0.8125 1.390625 1.953125q0.5 1.140625 0.5 2.5625q0 1.546875 -0.765625 3.09375q-0.75 1.53125 -2.09375 2.90625q-1.34375 1.375 -3.203125 2.453125q-1.859375 1.0625 -4.03125 1.65625q0.375 0.671875 0.734375 1.125q0.375 0.4375 0.734375 0.6875q0.375 0.25 0.78125 0.359375q0.421875 0.09375 0.890625 0.09375q1.5 0 3.15625 -0.59375q1.65625 -0.59375 3.21875 -1.484375q1.578125 -0.90625 2.96875 -1.96875q1.390625 -1.0625 2.359375 -2.0l3.21875 3.328125q-2.1875 2.265625 -4.65625 4.015625q-1.078125 0.75 -2.3125 1.46875q-1.21875 0.71875 -2.578125 1.28125q-1.359375 0.5625 -2.828125 0.90625q-1.453125 0.328125 -2.9375 0.328125zm-3.3125 -11.703125q0.890625 0 1.953125 -0.453125q1.0625 -0.46875 1.96875 -1.1875q0.90625 -0.71875 1.53125 -1.5625q0.625 -0.859375 0.625 -1.65625q0 -1.125 -0.421875 -1.84375q-0.40625 -0.71875 -1.0 -0.71875q-1.078125 0 -1.84375 0.40625q-0.75 0.390625 -1.265625 1.03125q-0.5 0.625 -0.8125 1.4375q-0.3125 0.8125 -0.484375 1.640625q-0.15625 0.8125 -0.203125 1.59375q-0.046875 0.765625 -0.046875 1.3125zm22.04419 11.703125q-2.28125 0 -4.015625 -0.84375q-1.734375 -0.84375 -2.90625 -2.265625q-1.15625 -1.421875 -1.765625 -3.28125q-0.59375 -1.875 -0.59375 -3.890625q0 -1.453125 0.296875 -3.015625q0.296875 -1.5625 0.875 -3.0625q0.59375 -1.515625 1.453125 -2.890625q0.859375 -1.375 1.984375 -2.40625q1.140625 -1.03125 2.53125 -1.640625q1.40625 -0.609375 3.0625 -0.609375q1.421875 0 2.625 0.4375q1.21875 0.4375 2.078125 1.21875q0.859375 0.765625 1.34375 1.828125q0.484375 1.046875 0.484375 2.265625q0 0.84375 -0.234375 1.671875q-0.21875 0.828125 -0.65625 1.484375q-0.421875 0.65625 -1.046875 1.0625q-0.625 0.390625 -1.40625 0.390625q-1.15625 0 -1.53125 -0.625q-0.359375 -0.625 -0.359375 -1.71875q0 -0.453125 0.03125 -0.9375q0.046875 -0.5 0.046875 -0.90625q0 -0.59375 -0.125 -0.984375q-0.125 -0.40625 -0.546875 -0.40625q-1.015625 0 -1.75 0.484375q-0.71875 0.484375 -1.234375 1.28125q-0.5 0.78125 -0.796875 1.765625q-0.296875 0.96875 -0.484375 1.953125q-0.171875 0.96875 -0.21875 1.859375q-0.046875 0.875 -0.046875 1.46875q0 0.90625 0.15625 1.875q0.171875 0.96875 0.609375 1.78125q0.453125 0.796875 1.21875 1.34375q0.78125 0.53125 2.0 0.53125q1.203125 0 2.640625 -0.734375q1.4375 -0.734375 2.890625 -1.84375q1.46875 -1.125 2.78125 -2.46875q1.328125 -1.359375 2.265625 -2.546875l1.71875 2.890625q-1.859375 2.65625 -4.03125 4.75q-0.921875 0.90625 -2.0 1.75q-1.078125 0.84375 -2.265625 1.5q-1.1875 0.65625 -2.46875 1.078125q-1.28125 0.40625 -2.609375 0.40625zm18.51709 -13.921875q0.890625 -1.140625 1.953125 -2.515625q1.078125 -1.375 2.109375 -2.609375q1.03125 -1.25 1.890625 -2.21875q0.859375 -0.96875 1.359375 -1.328125q0.78125 -0.546875 1.890625 -0.921875q1.125 -0.390625 2.5 -0.390625q0.6875 0 1.328125 0.328125q0.640625 0.3125 1.109375 0.921875q0.46875 0.59375 0.734375 1.4375q0.28125 0.84375 0.28125 1.890625q0 1.03125 -0.5 2.0625q-0.5 1.03125 -1.25 2.078125q-0.734375 1.046875 -1.609375 2.09375q-0.875 1.046875 -1.625 2.109375q-0.734375 1.046875 -1.234375 2.09375q-0.5 1.046875 -0.5 2.09375q0 0.890625 0.4375 1.28125q0.4375 0.390625 1.359375 0.390625q0.5 0 1.078125 -0.328125q0.578125 -0.34375 1.203125 -0.890625q0.625 -0.546875 1.25 -1.21875q0.640625 -0.6875 1.21875 -1.375q0.59375 -0.703125 1.109375 -1.328125q0.53125 -0.640625 0.953125 -1.09375l1.5 6.109375q-0.765625 1.109375 -1.953125 2.078125q-1.1875 0.953125 -2.578125 1.671875q-1.375 0.703125 -2.859375 1.109375q-1.46875 0.390625 -2.84375 0.390625q-1.796875 0 -2.9375 -0.4375q-1.125 -0.4375 -1.78125 -1.15625q-0.640625 -0.71875 -0.875 -1.625q-0.234375 -0.921875 -0.234375 -1.890625q0 -0.5625 0.140625 -1.390625q0.140625 -0.84375 0.515625 -1.890625q0.390625 -1.046875 1.078125 -2.296875q0.703125 -1.265625 1.828125 -2.703125q0.453125 -0.453125 0.8125 -0.8125q0.375 -0.359375 0.640625 -0.640625q0.28125 -0.296875 0.4375 -0.546875q0.15625 -0.25 0.15625 -0.515625q0 -0.53125 -0.1875 -0.84375q-0.1875 -0.328125 -0.546875 -0.328125q-0.421875 0 -1.09375 0.546875q-0.671875 0.546875 -1.46875 1.90625l-7.3125 12.859375q-0.578125 1.0 -1.1875 1.390625q-0.609375 0.375 -1.40625 0.375q-1.078125 0 -1.703125 -0.453125q-0.609375 -0.46875 -0.9375 -1.25q-0.328125 -0.78125 -0.421875 -1.8125q-0.078125 -1.046875 -0.078125 -2.21875q0 -1.40625 0.09375 -3.75q0.109375 -2.34375 0.296875 -5.140625q0.203125 -2.8125 0.53125 -5.875q0.34375 -3.0625 0.828125 -5.953125q0.171875 -1.015625 0.4375 -2.46875q0.28125 -1.453125 0.6875 -3.125q0.40625 -1.671875 0.96875 -3.46875q0.5625 -1.8125 1.296875 -3.515625q0.734375 -1.703125 1.65625 -3.25q0.921875 -1.546875 2.0625 -2.703125q1.15625 -1.15625 2.515625 -1.828125q1.375 -0.671875 3.0 -0.671875q1.265625 0 2.078125 0.40625q0.828125 0.40625 1.3125 1.140625q0.484375 0.734375 0.6875 1.765625q0.203125 1.015625 0.203125 2.21875q0 2.109375 -0.546875 4.546875q-0.53125 2.4375 -1.359375 4.890625q-0.8125 2.453125 -1.78125 4.78125q-0.96875 2.3125 -1.875 4.1875q-0.890625 1.859375 -1.578125 3.140625q-0.6875 1.28125 -0.90625 1.671875l-2.96875 4.4375l0.609375 0.375zm4.875 -27.96875q-0.796875 0 -1.375 0.5q-0.5625 0.5 -1.078125 1.421875q-0.515625 0.921875 -1.03125 2.25q-0.5 1.3125 -1.140625 2.9375q-0.40625 1.40625 -0.75 2.9375q-0.328125 1.515625 -0.609375 3.03125q-0.265625 1.5 -0.484375 2.96875q-0.203125 1.46875 -0.359375 2.765625q-0.375 3.0625 -0.59375 6.015625q0.546875 -1.640625 1.1875 -3.5625q0.65625 -1.9375 1.28125 -3.8125q0.640625 -1.890625 1.203125 -3.5625q0.5625 -1.6875 0.9375 -2.859375q0.171875 -0.546875 0.484375 -1.359375q0.328125 -0.828125 0.703125 -1.765625q0.375 -0.953125 0.75 -1.96875q0.375 -1.03125 0.6875 -1.96875q0.3125 -0.953125 0.5 -1.765625q0.203125 -0.828125 0.203125 -1.40625q0 -0.796875 -0.515625 -0.796875zm20.058777 41.890625q-2.34375 0 -4.109375 -0.84375q-1.75 -0.84375 -2.921875 -2.28125q-1.171875 -1.4375 -1.765625 -3.3125q-0.578125 -1.875 -0.578125 -3.953125q0 -1.390625 0.28125 -2.9375q0.28125 -1.5625 0.828125 -3.046875q0.5625 -1.5 1.40625 -2.859375q0.859375 -1.359375 1.984375 -2.390625q1.140625 -1.03125 2.546875 -1.640625q1.40625 -0.609375 3.125 -0.609375q1.390625 0 2.578125 0.453125q1.203125 0.4375 2.078125 1.25q0.890625 0.8125 1.390625 1.953125q0.5 1.140625 0.5 2.5625q0 1.546875 -0.765625 3.09375q-0.75 1.53125 -2.09375 2.90625q-1.34375 1.375 -3.203125 2.453125q-1.859375 1.0625 -4.03125 1.65625q0.375 0.671875 0.734375 1.125q0.375 0.4375 0.734375 0.6875q0.375 0.25 0.78125 0.359375q0.421875 0.09375 0.890625 0.09375q1.5 0 3.15625 -0.59375q1.65625 -0.59375 3.21875 -1.484375q1.578125 -0.90625 2.96875 -1.96875q1.390625 -1.0625 2.359375 -2.0l3.21875 3.328125q-2.1875 2.265625 -4.65625 4.015625q-1.078125 0.75 -2.3125 1.46875q-1.21875 0.71875 -2.578125 1.28125q-1.359375 0.5625 -2.828125 0.90625q-1.453125 0.328125 -2.9375 0.328125zm-3.3125 -11.703125q0.890625 0 1.953125 -0.453125q1.0625 -0.46875 1.96875 -1.1875q0.90625 -0.71875 1.53125 -1.5625q0.625 -0.859375 0.625 -1.65625q0 -1.125 -0.421875 -1.84375q-0.40625 -0.71875 -1.0 -0.71875q-1.078125 0 -1.84375 0.40625q-0.75 0.390625 -1.265625 1.03125q-0.5 0.625 -0.8125 1.4375q-0.3125 0.8125 -0.484375 1.640625q-0.15625 0.8125 -0.203125 1.59375q-0.046875 0.765625 -0.046875 1.3125zm14.356689 6.5q0 -1.09375 0.125 -2.546875q0.125 -1.46875 0.328125 -3.078125q0.21875 -1.625 0.5 -3.296875q0.296875 -1.6875 0.609375 -3.203125q0.328125 -1.515625 0.65625 -2.78125q0.328125 -1.28125 0.640625 -2.109375q0.203125 -0.546875 0.40625 -0.859375q0.203125 -0.328125 0.453125 -0.515625q0.265625 -0.1875 0.640625 -0.25q0.390625 -0.0625 0.96875 -0.0625q0.65625 0 1.015625 0.0625q0.359375 0.0625 0.53125 0.296875q0.171875 0.234375 0.203125 0.6875q0.046875 0.453125 0.046875 1.21875q0 0.921875 0 2.234375q0 1.296875 0.046875 2.578125l0.28125 0q0.484375 -1.0 1.109375 -2.234375q0.625 -1.234375 1.4375 -2.296875q0.828125 -1.078125 1.875 -1.8125q1.046875 -0.734375 2.421875 -0.734375q0.46875 0 0.90625 0.171875q0.453125 0.15625 0.796875 0.453125q0.34375 0.296875 0.53125 0.734375q0.203125 0.4375 0.203125 0.984375q0 0.421875 -0.125 1.1875q-0.125 0.75 -0.28125 1.59375q-0.140625 0.828125 -0.265625 1.609375q-0.125 0.78125 -0.125 1.3125q0 0.890625 0.171875 1.5q0.171875 0.59375 0.453125 0.953125q0.296875 0.359375 0.65625 0.515625q0.359375 0.140625 0.765625 0.140625q1.109375 0 2.296875 -0.5q1.203125 -0.5 2.203125 -1.125q1.171875 -0.71875 2.296875 -1.640625l-0.375 5.828125q-0.65625 0.421875 -1.484375 0.953125q-0.8125 0.515625 -1.75 0.984375q-0.921875 0.453125 -1.9375 0.765625q-1.0 0.3125 -2.046875 0.3125q-1.875 0 -3.015625 -0.75q-1.140625 -0.765625 -1.828125 -2.0q-0.671875 -1.234375 -1.0 -2.765625q-0.3125 -1.53125 -0.515625 -3.09375l-0.390625 0l-4.453125 12.421875q-0.359375 0.96875 -0.671875 1.609375q-0.3125 0.625 -0.640625 1.03125q-0.3125 0.390625 -0.6875 0.5625q-0.375 0.15625 -0.828125 0.15625q-1.015625 0 -1.640625 -0.4375q-0.625 -0.4375 -0.96875 -1.171875q-0.328125 -0.734375 -0.4375 -1.65625q-0.109375 -0.9375 -0.109375 -1.9375z" fill-rule="nonzero"></path><path fill="#000000" fill-opacity="0.0" d="m13.892388 3.2362204l68.50394 0l0 82.80315l-68.50394 0z" fill-rule="nonzero"></path><path fill="#f3f3f3" d="m28.92364 67.5778l8.687498 -40.71875l9.46875 -1.25l-4.53125 21.375q4.6875 -0.4375 7.9375 -5.375q3.25 -4.9375 3.25 -10.6875q0 -5.75 -4.34375 -7.71875q-1.5 -0.6875 -3.59375 -0.6875q-7.8125 0 -12.1875 4.09375q-4.374998 4.09375 -4.374998 11.46875q0 2.59375 0.71875 3.90625q0.15625 0.25 0.15625 0.4375q-5.125 0 -6.40625 -3.28125q-0.4375 -1.1875 -0.4375 -2.9375q0 -3.21875 2.015625 -6.203125q2.015625 -2.984375 5.203125 -5.296875q7.281248 -5.125 14.968748 -5.125q7.6875 0 11.53125 3.625q3.84375 3.625 3.84375 8.96875q0 3.0625 -1.265625 6.125q-1.265625 3.0625 -3.671875 5.53125q-5.375 5.5 -13.53125 5.5l-0.34375 0l-3.90625 18.25l-9.187498 0z" fill-rule="nonzero"></path></g></svg>

