<?xml version="1.0" standalone="yes"?>

<svg version="1.1" viewBox="0.0 0.0 450.0 100.0" fill="none" stroke="none" stroke-linecap="square" stroke-miterlimit="10" xmlns="http://www.w3.org/2000/svg" xmlns:xlink="http://www.w3.org/1999/xlink"><clipPath id="p.0"><path d="m0 0l450.0 0l0 100.0l-450.0 0l0 -100.0z" clip-rule="nonzero"></path></clipPath><g clip-path="url(#p.0)"><path fill="#000000" fill-opacity="0.0" d="m0 0l450.58792 0l0 100.0l-450.58792 0z" fill-rule="nonzero"></path><path fill="#1c4587" d="m2.8687663 44.637794l0 0c0 -22.865458 17.80285 -41.401573 39.76378 -41.401573l0 0c10.546009 0 20.660084 4.361939 28.11724 12.126241c7.4571533 7.7643013 11.646538 18.294952 11.646538 29.275333l0 0c0 22.865456 -17.802849 41.401573 -39.76378 41.401573l0 0c-21.960928 0 -39.76378 -18.536118 -39.76378 -41.401573z" fill-rule="nonzero"></path><path stroke="#f3f3f3" stroke-width="3.0" stroke-linejoin="round" stroke-linecap="butt" d="m2.8687663 44.637794l0 0c0 -22.865458 17.80285 -41.401573 39.76378 -41.401573l0 0c10.546009 0 20.660084 4.361939 28.11724 12.126241c7.4571533 7.7643013 11.646538 18.294952 11.646538 29.275333l0 0c0 22.865456 -17.802849 41.401573 -39.76378 41.401573l0 0c-21.960928 0 -39.76378 -18.536118 -39.76378 -41.401573z" fill-rule="nonzero"></path><path fill="#000000" fill-opacity="0.0" d="m78.78746 12.488189l116.59842 0l0 109.16535l-116.59842 0z" fill-rule="nonzero"></path><path fill="#f3f3f3" d="m96.521835 70.12819q-1.34375 0 -2.5 -1.171875q-1.15625 -1.1875 -2.015625 -3.171875q-0.859375 -2.0 -1.34375 -4.625q-0.484375 -2.640625 -0.484375 -5.53125q0 -2.203125 0.3125 -4.8125q0.328125 -2.609375 0.953125 -5.359375q0.625 -2.765625 1.484375 -5.546875q0.859375 -2.796875 1.9375 -5.359375q1.09375 -2.578125 2.359375 -4.796875q1.265625 -2.234375 2.65625 -3.890625q1.40625 -1.65625 2.921875 -2.59375q1.515625 -0.953125 3.09375 -0.953125q1.0625 0 1.75 0.484375q0.703125 0.484375 1.09375 1.28125q0.40625 0.796875 0.5625 1.8125q0.171875 1.0 0.171875 2.046875q0 2.34375 -0.53125 4.78125q-0.53125 2.421875 -1.453125 4.875q-0.90625 2.453125 -2.109375 4.921875q-1.1875 2.453125 -2.484375 4.890625q-1.28125 2.421875 -2.59375 4.78125q-1.3125 2.34375 -2.453125 4.59375q-0.125 0.25 -0.265625 0.65625q-0.140625 0.390625 -0.265625 0.859375q-0.125 0.453125 -0.25 0.984375q-0.109375 0.515625 -0.1875 1.0l0 0.359375q0 0.640625 0.125 1.25q0.140625 0.609375 0.34375 1.09375q0.203125 0.484375 0.421875 0.78125q0.21875 0.28125 0.421875 0.28125q0.46875 0 1.078125 -0.1875q0.625 -0.203125 1.296875 -0.53125q0.6875 -0.34375 1.40625 -0.78125q0.734375 -0.4375 1.40625 -0.890625q1.5625 -1.046875 3.28125 -2.40625l2.046875 5.21875q-2.21875 1.59375 -4.390625 2.84375q-0.9375 0.515625 -1.953125 1.03125q-1.0 0.515625 -2.03125 0.921875q-1.015625 0.390625 -1.984375 0.625q-0.96875 0.234375 -1.828125 0.234375zm0.03125 -19.921875q1.125 -2.0 2.375 -4.484375q1.265625 -2.484375 2.375 -5.125q1.125 -2.640625 1.9375 -5.265625q0.828125 -2.625 1.0625 -4.890625q0 -0.734375 -0.046875 -1.234375q-0.03125 -0.515625 -0.234375 -0.515625q-0.71875 0 -1.5625 0.9375q-0.828125 0.9375 -1.671875 2.53125q-0.828125 1.59375 -1.59375 3.703125q-0.75 2.109375 -1.34375 4.5q-0.59375 2.390625 -0.953125 4.921875q-0.34375 2.53125 -0.34375 4.921875zm34.691086 13.828125q-0.578125 0.796875 -1.53125 1.875q-0.953125 1.0625 -2.15625 2.03125q-1.1875 0.96875 -2.5625 1.640625q-1.375 0.671875 -2.734375 0.671875q-1.640625 0 -2.75 -1.0625q-1.09375 -1.0625 -1.890625 -3.078125q-0.59375 0.703125 -1.46875 1.421875q-0.875 0.71875 -1.90625 1.3125q-1.03125 0.578125 -2.15625 0.953125q-1.109375 0.375 -2.234375 0.375q-1.1875 0 -2.328125 -0.484375q-1.125 -0.484375 -2.0 -1.390625q-0.875 -0.90625 -1.40625 -2.21875q-0.515625 -1.3125 -0.515625 -2.953125q0 -1.859375 0.515625 -3.828125q0.53125 -1.96875 1.453125 -3.84375q0.921875 -1.890625 2.171875 -3.546875q1.265625 -1.671875 2.75 -2.921875q1.5 -1.25 3.15625 -1.984375q1.65625 -0.734375 3.375 -0.734375q0.578125 0 0.890625 0.234375q0.328125 0.21875 0.53125 0.515625q0.21875 0.28125 0.421875 0.5625q0.203125 0.265625 0.5 0.390625q0.296875 0.125 0.609375 0.15625q0.3125 0.03125 0.640625 0.03125q0.265625 0 0.546875 0q0.296875 -0.015625 0.5625 -0.015625q0.375 0 0.703125 0.078125q0.328125 0.0625 0.5625 0.3125q0.25 0.25 0.390625 0.703125q0.140625 0.453125 0.140625 1.21875q0 1.1875 -0.25 2.65625q-0.25 1.453125 -0.546875 2.984375q-0.296875 1.53125 -0.546875 3.0625q-0.25 1.53125 -0.25 2.90625q0 1.171875 0.203125 1.828125q0.21875 0.65625 0.921875 0.65625q0.515625 0 1.09375 -0.25q0.578125 -0.265625 1.15625 -0.6875q0.578125 -0.4375 1.15625 -0.96875q0.59375 -0.53125 1.125 -1.109375q1.21875 -1.34375 2.46875 -3.03125l1.1875 5.53125zm-21.265625 -1.96875q0 0.609375 0.078125 1.203125q0.09375 0.578125 0.3125 1.046875q0.234375 0.453125 0.609375 0.75q0.375 0.28125 0.9375 0.28125q0.921875 0 1.671875 -0.796875q0.75 -0.796875 1.296875 -1.90625q0.546875 -1.125 0.875 -2.3125q0.34375 -1.203125 0.4375 -2.0l1.53125 -7.328125q-1.03125 0 -2.0 0.515625q-0.96875 0.5 -1.828125 1.375q-0.859375 0.875 -1.578125 2.0q-0.71875 1.109375 -1.25 2.34375q-0.515625 1.234375 -0.8125 2.484375q-0.28125 1.234375 -0.28125 2.34375zm28.453613 5.453125q-1.34375 1.1875 -2.796875 1.921875q-1.453125 0.734375 -2.828125 0.734375q-1.1875 0 -2.328125 -0.484375q-1.125 -0.484375 -2.0 -1.390625q-0.875 -0.90625 -1.40625 -2.21875q-0.515625 -1.3125 -0.515625 -2.953125q0 -1.859375 0.515625 -3.828125q0.53125 -1.96875 1.453125 -3.84375q0.921875 -1.890625 2.171875 -3.546875q1.265625 -1.671875 2.75 -2.921875q1.5 -1.25 3.15625 -1.984375q1.65625 -0.734375 3.375 -0.734375q0.578125 0 0.890625 0.234375q0.328125 0.21875 0.53125 0.515625q0.21875 0.28125 0.421875 0.5625q0.203125 0.265625 0.5 0.390625q0.296875 0.125 0.609375 0.15625q0.3125 0.03125 0.640625 0.03125q0.265625 0 0.546875 0q0.296875 -0.015625 0.5625 -0.015625q0.375 0 0.703125 0.078125q0.328125 0.0625 0.5625 0.3125q0.25 0.25 0.390625 0.703125q0.140625 0.453125 0.140625 1.21875q0 0.640625 -0.109375 1.75q-0.09375 1.09375 -0.265625 2.4375q-0.171875 1.34375 -0.390625 2.859375q-0.203125 1.5 -0.421875 2.9375q-0.53125 3.4375 -1.203125 7.34375q0.75 -0.421875 1.609375 -1.046875q0.875 -0.625 1.9375 -1.65625q1.078125 -1.046875 2.390625 -2.625q1.328125 -1.59375 2.984375 -3.953125l1.1875 5.53125q-0.453125 0.765625 -1.15625 1.578125q-0.703125 0.8125 -1.5625 1.625q-0.859375 0.796875 -1.796875 1.5625q-0.9375 0.75 -1.828125 1.421875q-2.125 1.59375 -4.5625 3.09375q-0.46875 2.671875 -1.125 5.1875q-0.640625 2.53125 -1.53125 4.734375q-0.875 2.203125 -2.015625 4.046875q-1.125 1.84375 -2.5625 3.15625q-1.4375 1.328125 -3.203125 2.0625q-1.765625 0.734375 -3.90625 0.734375q-0.84375 0 -1.828125 -0.171875q-0.984375 -0.171875 -1.828125 -0.703125q-0.828125 -0.515625 -1.375 -1.5q-0.546875 -0.96875 -0.546875 -2.578125q0 -1.125 0.578125 -2.53125q0.5625 -1.40625 1.5625 -2.96875q1.0 -1.546875 2.359375 -3.234375q1.375 -1.671875 2.984375 -3.34375q1.609375 -1.671875 3.359375 -3.296875q1.75 -1.609375 3.546875 -3.078125l0.671875 -2.3125zm-5.5 -5.453125q0 0.609375 0.078125 1.203125q0.09375 0.578125 0.3125 1.046875q0.234375 0.453125 0.609375 0.75q0.375 0.28125 0.9375 0.28125q0.921875 0 1.671875 -0.796875q0.75 -0.796875 1.296875 -1.90625q0.546875 -1.125 0.875 -2.3125q0.34375 -1.203125 0.4375 -2.0l1.53125 -7.328125q-1.03125 0 -2.0 0.515625q-0.96875 0.5 -1.828125 1.375q-0.859375 0.875 -1.578125 2.0q-0.71875 1.109375 -1.25 2.34375q-0.515625 1.234375 -0.8125 2.484375q-0.28125 1.234375 -0.28125 2.34375zm-3.6875 26.390625q1.046875 0 1.984375 -0.609375q0.9375 -0.609375 1.71875 -1.609375q0.78125 -1.0 1.421875 -2.265625q0.65625 -1.265625 1.15625 -2.609375q0.5 -1.328125 0.84375 -2.59375q0.34375 -1.265625 0.546875 -2.265625q-0.96875 0.640625 -1.984375 1.53125q-1.0 0.90625 -1.96875 1.9375q-0.953125 1.03125 -1.8125 2.125q-0.859375 1.109375 -1.515625 2.109375q-0.640625 1.015625 -1.015625 1.875q-0.375 0.875 -0.375 1.453125q0 0.921875 1.0 0.921875zm37.00049 -23.625q-0.890625 0.8125 -2.234375 1.75q-1.328125 0.9375 -2.875 1.71875q-1.546875 0.78125 -3.15625 1.3125q-1.59375 0.515625 -3.046875 0.515625q-1.28125 0 -2.171875 -0.359375q-0.890625 -0.359375 -1.4375 -1.0q-0.546875 -0.65625 -0.78125 -1.59375q-0.234375 -0.9375 -0.234375 -2.046875q0 -1.578125 0.359375 -3.65625q0.359375 -2.078125 0.875 -4.296875q0.53125 -2.234375 1.109375 -4.453125q0.59375 -2.21875 1.046875 -4.078125q0.171875 -0.65625 0.6875 -1.109375q0.53125 -0.46875 1.1875 -0.75q0.65625 -0.28125 1.359375 -0.421875q0.71875 -0.140625 1.296875 -0.140625q1.046875 0 1.421875 0.390625q0.375 0.375 0.375 1.03125q0 0.546875 -0.25 1.578125q-0.25 1.03125 -0.625 2.34375q-0.375 1.3125 -0.796875 2.8125q-0.421875 1.5 -0.796875 3.015625q-0.375 1.5 -0.625 2.9375q-0.25 1.421875 -0.25 2.578125q0 1.125 0.25 1.78125q0.25 0.65625 1.015625 0.65625q0.90625 0 2.0 -0.625q1.09375 -0.625 2.203125 -1.5q1.125 -0.890625 2.1875 -1.828125q1.078125 -0.953125 1.90625 -1.625l0 5.0625zm-11.125 -25.609375q0 -0.578125 0.234375 -1.296875q0.25 -0.71875 0.8125 -1.34375q0.5625 -0.640625 1.5 -1.078125q0.9375 -0.4375 2.328125 -0.4375q0.875 0 1.640625 0.203125q0.78125 0.1875 1.34375 0.609375q0.578125 0.40625 0.90625 1.078125q0.34375 0.671875 0.34375 1.59375q0 0.84375 -0.28125 1.640625q-0.265625 0.796875 -0.875 1.421875q-0.59375 0.625 -1.5 1.015625q-0.90625 0.375 -2.171875 0.375q-2.203125 0 -3.25 -1.03125q-1.03125 -1.03125 -1.03125 -2.75zm24.407425 25.609375q-0.890625 0.8125 -2.234375 1.75q-1.328125 0.9375 -2.875 1.71875q-1.546875 0.78125 -3.15625 1.3125q-1.59375 0.515625 -3.046875 0.515625q-1.28125 0 -2.171875 -0.359375q-0.890625 -0.359375 -1.4375 -1.0q-0.546875 -0.65625 -0.78125 -1.59375q-0.234375 -0.9375 -0.234375 -2.046875q0 -1.578125 0.359375 -3.65625q0.359375 -2.078125 0.875 -4.296875q0.53125 -2.234375 1.109375 -4.453125q0.59375 -2.21875 1.046875 -4.078125q0.171875 -0.65625 0.6875 -1.109375q0.53125 -0.46875 1.1875 -0.75q0.65625 -0.28125 1.359375 -0.421875q0.71875 -0.140625 1.296875 -0.140625q1.046875 0 1.421875 0.390625q0.375 0.375 0.375 1.03125q0 0.546875 -0.25 1.578125q-0.25 1.03125 -0.625 2.34375q-0.375 1.3125 -0.796875 2.8125q-0.421875 1.5 -0.796875 3.015625q-0.375 1.5 -0.625 2.9375q-0.25 1.421875 -0.25 2.578125q0 1.125 0.25 1.78125q0.25 0.65625 1.015625 0.65625q0.90625 0 2.0 -0.625q1.09375 -0.625 2.203125 -1.5q1.125 -0.890625 2.1875 -1.828125q1.078125 -0.953125 1.90625 -1.625l0 5.0625zm-11.125 -25.609375q0 -0.578125 0.234375 -1.296875q0.25 -0.71875 0.8125 -1.34375q0.5625 -0.640625 1.5 -1.078125q0.9375 -0.4375 2.328125 -0.4375q0.875 0 1.640625 0.203125q0.78125 0.1875 1.34375 0.609375q0.578125 0.40625 0.90625 1.078125q0.34375 0.671875 0.34375 1.59375q0 0.84375 -0.28125 1.640625q-0.265625 0.796875 -0.875 1.421875q-0.59375 0.625 -1.5 1.015625q-0.90625 0.375 -2.171875 0.375q-2.203125 0 -3.25 -1.03125q-1.03125 -1.03125 -1.03125 -2.75z" fill-rule="nonzero"></path><path fill="#000000" fill-opacity="0.0" d="m13.892388 3.2362204l68.50394 0l0 82.80315l-68.50394 0z" fill-rule="nonzero"></path><path fill="#f3f3f3" d="m28.92364 67.5778l8.687498 -40.71875l9.46875 -1.25l-4.53125 21.375q4.6875 -0.4375 7.9375 -5.375q3.25 -4.9375 3.25 -10.6875q0 -5.75 -4.34375 -7.71875q-1.5 -0.6875 -3.59375 -0.6875q-7.8125 0 -12.1875 4.09375q-4.374998 4.09375 -4.374998 11.46875q0 2.59375 0.71875 3.90625q0.15625 0.25 0.15625 0.4375q-5.125 0 -6.40625 -3.28125q-0.4375 -1.1875 -0.4375 -2.9375q0 -3.21875 2.015625 -6.203125q2.015625 -2.984375 5.203125 -5.296875q7.281248 -5.125 14.968748 -5.125q7.6875 0 11.53125 3.625q3.84375 3.625 3.84375 8.96875q0 3.0625 -1.265625 6.125q-1.265625 3.0625 -3.671875 5.53125q-5.375 5.5 -13.53125 5.5l-0.34375 0l-3.90625 18.25l-9.187498 0z" fill-rule="nonzero"></path><path fill="#000000" fill-opacity="0.0" d="m195.38664 41.677166l438.89764 0l0 109.165344l-438.89764 0z" fill-rule="nonzero"></path><path fill="#f3f3f3" d="m212.05852 59.51404q0 0.015625 -0.015625 0.15625q-0.015625 0.140625 -0.140625 0.3125q-0.109375 0.15625 -0.375 0.296875q-0.265625 0.125 -0.765625 0.125q-0.671875 0 -1.0625 -0.078125q-0.375 -0.078125 -0.5625 -0.203125q-0.171875 -0.140625 -0.21875 -0.3125q-0.046875 -0.171875 -0.046875 -0.34375q0 -1.75 0.875 -3.0q0.890625 -1.25 2.46875 -2.046875q1.59375 -0.796875 3.8125 -1.171875q2.21875 -0.375 4.90625 -0.375q1.78125 0 3.734375 0.125q1.953125 0.109375 4.03125 0.40625q0.59375 0.171875 0.8125 0.484375q0.234375 0.296875 0.234375 0.625q0 0.234375 -0.0625 0.484375q-0.0625 0.234375 -0.203125 0.453125q-0.125 0.203125 -0.34375 0.34375q-0.203125 0.125 -0.5 0.125q-0.046875 0 -0.109375 0q-0.046875 0 -0.109375 -0.015625q-0.75 -0.125 -1.640625 -0.21875q-0.890625 -0.109375 -1.875 -0.171875q-0.96875 -0.0625 -2.015625 -0.09375q-1.03125 -0.03125 -2.09375 -0.03125q-0.3125 0 -0.75 0.03125q-0.4375 0.03125 -0.859375 0.078125q-0.46875 0.046875 -0.96875 0.125q0 0.125 -0.03125 0.296875q-0.015625 0.15625 -0.0625 0.453125q-0.046875 0.296875 -0.109375 0.75q-0.0625 0.453125 -0.15625 1.171875q-0.09375 0.71875 -0.21875 1.75q-0.109375 1.015625 -0.25 2.421875l6.5 0q0.28125 0 0.4375 0.109375q0.15625 0.109375 0.21875 0.28125q0.078125 0.171875 0.078125 0.375q0.015625 0.1875 0.015625 0.359375q0 0.5624962 -0.25 0.8437462q-0.234375 0.28125 -0.5 0.28125q-0.078125 0 -0.546875 0.015625q-0.453125 0.015625 -1.109375 0.046875q-0.65625 0.015625 -1.4375 0.046875q-0.78125 0.03125 -1.515625 0.0625q-0.734375 0.015625 -1.34375 0.03125q-0.59375 0.015625 -0.90625 0.015625q-0.203125 1.421875 -0.484375 2.734375q-0.265625 1.3125 -0.671875 2.453125q-0.390625 1.140625 -0.953125 2.078125q-0.546875 0.9375 -1.3125 1.609375q-0.75 0.671875 -1.75 1.03125q-1.0 0.375 -2.28125 0.375q-0.28125 0 -0.65625 -0.03125q-0.375 -0.03125 -0.78125 -0.125q-0.40625 -0.078125 -0.8125 -0.21875q-0.40625 -0.125 -0.71875 -0.328125q-0.3125 -0.203125 -0.515625 -0.46875q-0.203125 -0.25 -0.203125 -0.59375q0 -0.1875 0.078125 -0.46875q0.078125 -0.28125 0.234375 -0.546875q0.15625 -0.28125 0.390625 -0.46875q0.25 -0.203125 0.59375 -0.203125q0.375 0 0.796875 0.125q0.4375 0.125 0.890625 0.28125q0.46875 0.15625 0.9375 0.296875q0.484375 0.125 0.984375 0.125q0.375 0 0.734375 -0.3125q0.375 -0.3125 0.6875 -0.859375q0.328125 -0.546875 0.625 -1.265625q0.296875 -0.734375 0.546875 -1.578125q0.265625 -0.859375 0.484375 -1.78125q0.21875 -0.9375 0.40625 -1.859375l-1.4375 0q-0.203125 0 -0.5 -0.046875q-0.28125 -0.046875 -0.5625 -0.15625q-0.265625 -0.109375 -0.453125 -0.296875q-0.1875 -0.1875 -0.1875 -0.4687462q0 -0.203125 0.109375 -0.375q0.109375 -0.171875 0.34375 -0.265625q0.65625 -0.140625 1.140625 -0.234375q0.5 -0.109375 0.875 -0.1875q0.390625 -0.078125 0.6875 -0.125q0.296875 -0.0625 0.53125 -0.109375q0.28125 -1.25 0.4375 -2.171875q0.171875 -0.921875 0.28125 -1.671875q0.125 -0.765625 0.234375 -1.4375q0.109375 -0.671875 0.25 -1.421875q-1.015625 0.296875 -1.765625 0.71875q-0.75 0.40625 -1.25 0.875q-0.484375 0.46875 -0.71875 0.96875q-0.234375 0.5 -0.234375 0.984375zm9.953125 11.749996q0 -0.515625 0.0625 -1.203125q0.0625 -0.6875 0.15625 -1.4375q0.09375 -0.765625 0.234375 -1.546875q0.140625 -0.796875 0.28125 -1.515625q0.15625 -0.71875 0.3125 -1.3125q0.15625 -0.5937462 0.296875 -0.9843712q0.09375 -0.265625 0.1875 -0.40625q0.09375 -0.15625 0.21875 -0.234375q0.125 -0.09375 0.296875 -0.125q0.1875 -0.03125 0.46875 -0.03125q0.296875 0 0.46875 0.03125q0.171875 0.03125 0.25 0.140625q0.078125 0.109375 0.09375 0.328125q0.03125 0.203125 0.03125 0.5625q0 0.4375 0 1.0624962q0 0.609375 0.015625 1.203125l0.125 0q0.234375 -0.46875 0.53125 -1.046875q0.296875 -0.578125 0.671875 -1.0781212q0.390625 -0.515625 0.875 -0.859375q0.5 -0.34375 1.15625 -0.34375q0.21875 0 0.421875 0.078125q0.21875 0.078125 0.375 0.21875q0.15625 0.140625 0.25 0.34375q0.09375 0.203125 0.09375 0.453125q0 0.203125 -0.0625 0.5624962q-0.046875 0.359375 -0.125 0.75q-0.0625 0.390625 -0.125 0.765625q-0.0625 0.359375 -0.0625 0.609375q0 0.421875 0.078125 0.703125q0.09375 0.28125 0.21875 0.453125q0.140625 0.171875 0.3125 0.25q0.171875 0.0625 0.359375 0.0625q0.515625 0 1.078125 -0.234375q0.5625 -0.234375 1.03125 -0.53125q0.5625 -0.34375 1.078125 -0.765625l-0.171875 2.734375q-0.296875 0.203125 -0.6875 0.453125q-0.390625 0.234375 -0.828125 0.453125q-0.4375 0.21875 -0.921875 0.375q-0.46875 0.140625 -0.953125 0.140625q-0.890625 0 -1.4375 -0.359375q-0.53125 -0.359375 -0.84375 -0.9375q-0.3125 -0.578125 -0.46875 -1.296875q-0.15625 -0.71875 -0.25 -1.46875l-0.1875 0l-2.09375 5.859375q-0.15625 0.453125 -0.3125 0.75q-0.140625 0.296875 -0.296875 0.484375q-0.15625 0.1875 -0.328125 0.265625q-0.171875 0.078125 -0.390625 0.078125q-0.46875 0 -0.765625 -0.203125q-0.296875 -0.203125 -0.453125 -0.546875q-0.15625 -0.359375 -0.21875 -0.796875q-0.046875 -0.4375 -0.046875 -0.90625zm14.09375 2.453125q-1.109375 0 -1.9375 -0.390625q-0.828125 -0.40625 -1.375 -1.078125q-0.546875 -0.671875 -0.828125 -1.5625q-0.265625 -0.890625 -0.265625 -1.859375q0 -0.65625 0.125 -1.390625q0.125 -0.734375 0.390625 -1.4375q0.265625 -0.703125 0.65625 -1.328125q0.40625 -0.640625 0.9375 -1.1249962q0.53125 -0.5 1.1875 -0.78125q0.671875 -0.28125 1.484375 -0.28125q0.65625 0 1.21875 0.21875q0.5625 0.203125 0.96875 0.578125q0.421875 0.375 0.65625 0.9218712q0.234375 0.53125 0.234375 1.203125q0 0.734375 -0.359375 1.46875q-0.359375 0.71875 -1.0 1.359375q-0.625 0.640625 -1.5 1.15625q-0.875 0.5 -1.890625 0.78125q0.171875 0.3125 0.34375 0.53125q0.171875 0.203125 0.34375 0.328125q0.1875 0.109375 0.375 0.15625q0.1875 0.046875 0.421875 0.046875q0.703125 0 1.46875 -0.28125q0.78125 -0.28125 1.515625 -0.703125q0.75 -0.421875 1.40625 -0.921875q0.65625 -0.5 1.109375 -0.9375l1.515625 1.5625q-1.03125 1.0625 -2.1875 1.890625q-0.515625 0.34375 -1.09375 0.6875q-0.578125 0.34375 -1.21875 0.609375q-0.640625 0.265625 -1.328125 0.421875q-0.671875 0.15625 -1.375 0.15625zm-1.5625 -5.515625q0.421875 0 0.921875 -0.203125q0.5 -0.21875 0.921875 -0.5625q0.421875 -0.34375 0.71875 -0.734375q0.296875 -0.40625 0.296875 -0.78125q0 -0.53125 -0.203125 -0.859375q-0.1875 -0.34375 -0.46875 -0.34375q-0.5 0 -0.859375 0.1875q-0.359375 0.1875 -0.609375 0.484375q-0.234375 0.296875 -0.375 0.6875q-0.140625 0.375 -0.21875 0.765625q-0.078125 0.375 -0.109375 0.75q-0.015625 0.359375 -0.015625 0.609375zm10.785156 5.515625q-1.109375 0 -1.9375 -0.390625q-0.828125 -0.40625 -1.375 -1.078125q-0.546875 -0.671875 -0.828125 -1.5625q-0.265625 -0.890625 -0.265625 -1.859375q0 -0.65625 0.125 -1.390625q0.125 -0.734375 0.390625 -1.4375q0.265625 -0.703125 0.65625 -1.328125q0.40625 -0.640625 0.9375 -1.1249962q0.53125 -0.5 1.1875 -0.78125q0.671875 -0.28125 1.484375 -0.28125q0.65625 0 1.21875 0.21875q0.5625 0.203125 0.96875 0.578125q0.421875 0.375 0.65625 0.9218712q0.234375 0.53125 0.234375 1.203125q0 0.734375 -0.359375 1.46875q-0.359375 0.71875 -1.0 1.359375q-0.625 0.640625 -1.5 1.15625q-0.875 0.5 -1.890625 0.78125q0.171875 0.3125 0.34375 0.53125q0.171875 0.203125 0.34375 0.328125q0.1875 0.109375 0.375 0.15625q0.1875 0.046875 0.421875 0.046875q0.703125 0 1.46875 -0.28125q0.78125 -0.28125 1.515625 -0.703125q0.75 -0.421875 1.40625 -0.921875q0.65625 -0.5 1.109375 -0.9375l1.515625 1.5625q-1.03125 1.0625 -2.1875 1.890625q-0.515625 0.34375 -1.09375 0.6875q-0.578125 0.34375 -1.21875 0.609375q-0.640625 0.265625 -1.328125 0.421875q-0.671875 0.15625 -1.375 0.15625zm-1.5625 -5.515625q0.421875 0 0.921875 -0.203125q0.5 -0.21875 0.921875 -0.5625q0.421875 -0.34375 0.71875 -0.734375q0.296875 -0.40625 0.296875 -0.78125q0 -0.53125 -0.203125 -0.859375q-0.1875 -0.34375 -0.46875 -0.34375q-0.5 0 -0.859375 0.1875q-0.359375 0.1875 -0.609375 0.484375q-0.234375 0.296875 -0.375 0.6875q-0.140625 0.375 -0.21875 0.765625q-0.078125 0.375 -0.109375 0.75q-0.015625 0.359375 -0.015625 0.609375zm22.937485 -15.843746q1.96875 0 3.4375 0.53125q1.484375 0.53125 2.46875 1.421875q0.984375 0.875 1.484375 2.03125q0.5 1.140625 0.5 2.375q0 1.140625 -0.453125 2.265625q-0.4375 1.125 -1.34375 2.078125q-0.890625 0.9531212 -2.25 1.6406212q-1.359375 0.6875 -3.203125 0.96875q-0.03125 0.859375 -0.0625 1.578125q-0.015625 0.296875 -0.03125 0.609375q0 0.296875 -0.015625 0.5625q0 0.25 -0.015625 0.4375q0 0.1875 0 0.25q-0.015625 0.828125 -0.1875 1.71875q-0.171875 0.875 -0.5 1.71875q-0.3125 0.84375 -0.78125 1.59375q-0.453125 0.765625 -1.078125 1.328125q-0.609375 0.578125 -1.375 0.90625q-0.765625 0.328125 -1.65625 0.328125q-0.96875 0 -1.734375 -0.5q-0.75 -0.484375 -1.3125 -1.328125q-0.5625 -0.84375 -0.96875 -1.953125q-0.390625 -1.109375 -0.640625 -2.296875q-0.234375 -1.203125 -0.34375 -2.421875q-0.109375 -1.21875 -0.109375 -2.296875q0 -1.859375 0.328125 -3.5781212q0.34375 -1.71875 0.96875 -3.21875q0.640625 -1.515625 1.546875 -2.75q0.90625 -1.25 2.03125 -2.140625q1.125 -0.890625 2.453125 -1.375q1.34375 -0.484375 2.84375 -0.484375zm-7.03125 13.234371q0 0.484375 0 1.296875q0 0.8125 0.0625 1.75q0.0625 0.921875 0.1875 1.875q0.125 0.9375 0.375 1.703125q0.265625 0.765625 0.640625 1.265625q0.375 0.484375 0.953125 0.484375q0.59375 0 1.015625 -0.421875q0.421875 -0.421875 0.703125 -1.078125q0.28125 -0.65625 0.4375 -1.5q0.171875 -0.84375 0.25 -1.6875q0.09375 -0.84375 0.109375 -1.609375q0.03125 -0.765625 0.03125 -1.296875l0 -0.5625q-0.96875 -0.375 -1.53125 -0.671875q-0.5625 -0.296875 -0.84375 -0.5625q-0.28125 -0.265625 -0.359375 -0.5625q-0.0625 -0.3124962 -0.0625 -0.7031212q0 -0.21875 0 -0.421875q0.015625 -0.203125 0.0625 -0.359375q0.0625 -0.15625 0.15625 -0.25q0.109375 -0.109375 0.28125 -0.109375q0.109375 0 0.203125 0.046875q0.109375 0.046875 0.265625 0.125q0.390625 0.21875 0.703125 0.359375q0.3125 0.125 0.53125 0.203125q0.265625 0.09375 0.46875 0.140625q0 -0.140625 0 -0.59375q0.015625 -0.453125 0.078125 -1.03125q0.0625 -0.578125 0.21875 -1.203125q0.15625 -0.640625 0.4375 -1.171875q0.296875 -0.53125 0.765625 -0.875q0.46875 -0.34375 1.171875 -0.34375q0.203125 0 0.421875 0.046875q0.234375 0.03125 0.40625 0.140625q0.1875 0.109375 0.3125 0.296875q0.125 0.1875 0.125 0.484375q0 0.078125 -0.015625 0.109375q0 0.03125 0 0.078125l-0.71875 3.015625l-0.109375 0.921875q1.15625 -0.171875 1.984375 -0.5625q0.828125 -0.390625 1.375 -0.90625q0.546875 -0.53125 0.8125 -1.15625q0.265625 -0.640625 0.265625 -1.3125q0 -0.65625 -0.25 -1.34375q-0.25 -0.6875 -0.875 -1.25q-0.625 -0.5625 -1.671875 -0.921875q-1.03125 -0.359375 -2.625 -0.359375q-1.171875 0 -2.140625 0.453125q-0.953125 0.453125 -1.703125 1.234375q-0.75 0.765625 -1.3125 1.796875q-0.546875 1.03125 -0.90625 2.203125q-0.359375 1.15625 -0.53125 2.390625q-0.15625 1.2343712 -0.15625 2.4062462zm16.792969 8.125q-0.625 0 -1.171875 -0.546875q-0.546875 -0.5625 -0.953125 -1.5q-0.40625 -0.9375 -0.640625 -2.171875q-0.21875 -1.25 -0.21875 -2.609375q0 -1.03125 0.15625 -2.25q0.15625 -1.2343712 0.4375 -2.5312462q0.296875 -1.3125 0.703125 -2.625q0.40625 -1.3125 0.90625 -2.515625q0.515625 -1.203125 1.109375 -2.25q0.609375 -1.046875 1.265625 -1.828125q0.65625 -0.78125 1.359375 -1.21875q0.71875 -0.453125 1.453125 -0.453125q0.515625 0 0.84375 0.234375q0.328125 0.21875 0.515625 0.59375q0.1875 0.375 0.25 0.859375q0.078125 0.46875 0.078125 0.953125q0 1.109375 -0.25 2.25q-0.25 1.140625 -0.6875 2.296875q-0.421875 1.15625 -0.984375 2.3125q-0.5625 1.15625 -1.171875 2.3125q-0.609375 1.1406212 -1.21875 2.2499962q-0.609375 1.09375 -1.15625 2.15625q-0.0625 0.109375 -0.125 0.296875q-0.0625 0.1875 -0.125 0.40625q-0.046875 0.21875 -0.109375 0.46875q-0.0625 0.25 -0.09375 0.484375l0 0.15625q0 0.3125 0.0625 0.59375q0.0625 0.28125 0.15625 0.515625q0.09375 0.234375 0.203125 0.375q0.109375 0.125 0.203125 0.125q0.21875 0 0.5 -0.09375q0.296875 -0.09375 0.609375 -0.25q0.328125 -0.15625 0.65625 -0.359375q0.34375 -0.21875 0.671875 -0.421875q0.734375 -0.5 1.546875 -1.140625l0.953125 2.46875q-1.046875 0.75 -2.0625 1.328125q-0.4375 0.25 -0.921875 0.5q-0.46875 0.234375 -0.953125 0.421875q-0.484375 0.1875 -0.9375 0.296875q-0.453125 0.109375 -0.859375 0.109375zm0.015625 -9.375q0.53125 -0.9374962 1.125 -2.1093712q0.59375 -1.171875 1.109375 -2.40625q0.53125 -1.25 0.921875 -2.484375q0.390625 -1.234375 0.484375 -2.3125q0 -0.328125 -0.015625 -0.5625q-0.015625 -0.25 -0.109375 -0.25q-0.34375 0 -0.734375 0.4375q-0.390625 0.4375 -0.78125 1.1875q-0.390625 0.75 -0.75 1.75q-0.359375 1.0 -0.640625 2.125q-0.28125 1.125 -0.453125 2.3125q-0.15625 1.1875 -0.15625 2.3124962zm16.378906 6.5q-0.28125 0.375 -0.734375 0.890625q-0.4375 0.5 -1.0 0.953125q-0.5625 0.453125 -1.21875 0.78125q-0.640625 0.3125 -1.28125 0.3125q-0.78125 0 -1.296875 -0.5q-0.515625 -0.5 -0.890625 -1.453125q-0.28125 0.328125 -0.6875 0.671875q-0.40625 0.34375 -0.890625 0.625q-0.484375 0.265625 -1.015625 0.453125q-0.53125 0.171875 -1.0625 0.171875q-0.5625 0 -1.09375 -0.234375q-0.53125 -0.234375 -0.9375 -0.65625q-0.40625 -0.4375 -0.65625 -1.046875q-0.25 -0.609375 -0.25 -1.390625q0 -0.875 0.25 -1.796875q0.25 -0.9375 0.671875 -1.8125q0.4375 -0.890625 1.03125 -1.671875q0.59375 -0.78125 1.296875 -1.3593712q0.703125 -0.59375 1.484375 -0.9375q0.78125 -0.359375 1.578125 -0.359375q0.28125 0 0.421875 0.109375q0.15625 0.109375 0.25 0.25q0.109375 0.125 0.203125 0.265625q0.09375 0.125 0.234375 0.171875q0.140625 0.0625 0.28125 0.078125q0.15625 0.015625 0.296875 0.015625q0.140625 0 0.265625 0q0.140625 0 0.265625 0q0.171875 0 0.328125 0.03125q0.15625 0.03125 0.265625 0.15625q0.125 0.109375 0.1875 0.328125q0.0625 0.20312119 0.0625 0.5624962q0 0.5625 -0.125 1.25q-0.109375 0.6875 -0.25 1.40625q-0.140625 0.71875 -0.265625 1.453125q-0.109375 0.71875 -0.109375 1.359375q0 0.546875 0.09375 0.859375q0.109375 0.3125 0.4375 0.3125q0.25 0 0.515625 -0.125q0.265625 -0.125 0.53125 -0.3125q0.28125 -0.203125 0.5625 -0.453125q0.28125 -0.265625 0.515625 -0.53125q0.578125 -0.625 1.171875 -1.421875l0.5625 2.59375zm-10.015625 -0.921875q0 0.296875 0.03125 0.578125q0.046875 0.265625 0.15625 0.484375q0.109375 0.21875 0.28125 0.359375q0.171875 0.125 0.453125 0.125q0.421875 0 0.765625 -0.375q0.359375 -0.375 0.609375 -0.90625q0.265625 -0.53125 0.421875 -1.09375q0.171875 -0.5625 0.21875 -0.9375l0.703125 -3.4375q-0.46875 0 -0.9375 0.25q-0.453125 0.234375 -0.859375 0.640625q-0.40625 0.40625 -0.75 0.9375q-0.328125 0.53125 -0.578125 1.109375q-0.25 0.578125 -0.390625 1.171875q-0.125 0.578125 -0.125 1.09375zm13.46875 2.5625q-0.640625 0.5625 -1.328125 0.921875q-0.671875 0.34375 -1.328125 0.34375q-0.5625 0 -1.09375 -0.234375q-0.53125 -0.234375 -0.9375 -0.65625q-0.40625 -0.4375 -0.65625 -1.046875q-0.25 -0.609375 -0.25 -1.390625q0 -0.875 0.25 -1.796875q0.25 -0.9375 0.671875 -1.8125q0.4375 -0.890625 1.03125 -1.671875q0.59375 -0.78125 1.296875 -1.3593712q0.703125 -0.59375 1.484375 -0.9375q0.78125 -0.359375 1.578125 -0.359375q0.28125 0 0.421875 0.109375q0.15625 0.109375 0.25 0.25q0.109375 0.125 0.203125 0.265625q0.09375 0.125 0.234375 0.171875q0.140625 0.0625 0.28125 0.078125q0.15625 0.015625 0.296875 0.015625q0.140625 0 0.265625 0q0.140625 0 0.265625 0q0.171875 0 0.328125 0.03125q0.15625 0.03125 0.265625 0.15625q0.125 0.109375 0.1875 0.328125q0.0625 0.20312119 0.0625 0.5624962q0 0.3125 -0.046875 0.828125q-0.046875 0.515625 -0.125 1.15625q-0.078125 0.625 -0.1875 1.34375q-0.09375 0.703125 -0.203125 1.375q-0.25 1.625 -0.5625 3.453125q0.359375 -0.1875 0.765625 -0.484375q0.40625 -0.296875 0.90625 -0.78125q0.515625 -0.5 1.125 -1.234375q0.625 -0.75 1.40625 -1.859375l0.5625 2.59375q-0.21875 0.359375 -0.5625 0.75q-0.328125 0.375 -0.734375 0.765625q-0.390625 0.375 -0.84375 0.734375q-0.4375 0.359375 -0.859375 0.671875q-0.984375 0.75 -2.140625 1.453125q-0.21875 1.25 -0.53125 2.4375q-0.296875 1.203125 -0.71875 2.234375q-0.40625 1.03125 -0.953125 1.890625q-0.53125 0.875 -1.203125 1.5q-0.671875 0.625 -1.5 0.96875q-0.828125 0.34375 -1.84375 0.34375q-0.390625 0 -0.859375 -0.078125q-0.46875 -0.078125 -0.859375 -0.328125q-0.390625 -0.25 -0.640625 -0.703125q-0.265625 -0.453125 -0.265625 -1.21875q0 -0.53125 0.265625 -1.203125q0.265625 -0.65625 0.734375 -1.390625q0.484375 -0.71875 1.125 -1.515625q0.640625 -0.796875 1.390625 -1.578125q0.765625 -0.78125 1.59375 -1.546875q0.828125 -0.765625 1.671875 -1.453125l0.3125 -1.09375zm-2.59375 -2.5625q0 0.296875 0.03125 0.578125q0.046875 0.265625 0.15625 0.484375q0.109375 0.21875 0.28125 0.359375q0.171875 0.125 0.453125 0.125q0.421875 0 0.765625 -0.375q0.359375 -0.375 0.609375 -0.90625q0.265625 -0.53125 0.421875 -1.09375q0.171875 -0.5625 0.21875 -0.9375l0.703125 -3.4375q-0.46875 0 -0.9375 0.25q-0.453125 0.234375 -0.859375 0.640625q-0.40625 0.40625 -0.75 0.9375q-0.328125 0.53125 -0.578125 1.109375q-0.25 0.578125 -0.390625 1.171875q-0.125 0.578125 -0.125 1.09375zm-1.734375 12.421875q0.5 0 0.9375 -0.296875q0.4375 -0.28125 0.796875 -0.75q0.375 -0.46875 0.671875 -1.0625q0.3125 -0.59375 0.546875 -1.21875q0.234375 -0.625 0.390625 -1.234375q0.171875 -0.59375 0.265625 -1.0625q-0.453125 0.3125 -0.9375 0.734375q-0.46875 0.421875 -0.921875 0.90625q-0.453125 0.484375 -0.859375 1.0q-0.390625 0.515625 -0.703125 0.984375q-0.296875 0.484375 -0.484375 0.890625q-0.171875 0.40625 -0.171875 0.671875q0 0.4375 0.46875 0.4375zm17.484375 -11.125q-0.421875 0.390625 -1.046875 0.828125q-0.625 0.4375 -1.359375 0.8125q-0.71875 0.359375 -1.484375 0.609375q-0.75 0.25 -1.421875 0.25q-0.609375 0 -1.03125 -0.171875q-0.421875 -0.171875 -0.6875 -0.46875q-0.25 -0.3125 -0.359375 -0.75q-0.109375 -0.4375 -0.109375 -0.96875q0 -0.734375 0.171875 -1.703125q0.171875 -0.984375 0.40625 -2.03125q0.25 -1.0625 0.53125 -2.09375q0.28125 -1.046875 0.484375 -1.9218712q0.078125 -0.3125 0.328125 -0.53125q0.25 -0.21875 0.5625 -0.34375q0.3125 -0.140625 0.640625 -0.203125q0.328125 -0.0625 0.609375 -0.0625q0.484375 0 0.65625 0.1875q0.1875 0.171875 0.1875 0.484375q0 0.25 -0.125 0.734375q-0.109375 0.4843712 -0.296875 1.1093712q-0.171875 0.609375 -0.375 1.328125q-0.1875 0.703125 -0.375 1.421875q-0.171875 0.703125 -0.296875 1.375q-0.109375 0.671875 -0.109375 1.203125q0 0.53125 0.109375 0.84375q0.125 0.3125 0.484375 0.3125q0.421875 0 0.9375 -0.296875q0.515625 -0.296875 1.046875 -0.703125q0.53125 -0.421875 1.03125 -0.859375q0.5 -0.453125 0.890625 -0.765625l0 2.375zm-5.234375 -12.046871q0 -0.265625 0.109375 -0.609375q0.125 -0.34375 0.390625 -0.640625q0.265625 -0.296875 0.703125 -0.5q0.4375 -0.203125 1.09375 -0.203125q0.40625 0 0.765625 0.09375q0.375 0.09375 0.640625 0.296875q0.265625 0.1875 0.421875 0.5q0.15625 0.3125 0.15625 0.75q0 0.390625 -0.125 0.765625q-0.125 0.375 -0.40625 0.671875q-0.28125 0.296875 -0.71875 0.484375q-0.421875 0.171875 -1.015625 0.171875q-1.03125 0 -1.53125 -0.484375q-0.484375 -0.484375 -0.484375 -1.296875zm16.667969 11.671871q-0.28125 0.375 -0.734375 0.890625q-0.4375 0.5 -1.0 0.953125q-0.5625 0.453125 -1.21875 0.78125q-0.640625 0.3125 -1.28125 0.3125q-0.78125 0 -1.296875 -0.5q-0.515625 -0.5 -0.890625 -1.453125q-0.28125 0.328125 -0.6875 0.671875q-0.40625 0.34375 -0.890625 0.625q-0.484375 0.265625 -1.015625 0.453125q-0.53125 0.171875 -1.0625 0.171875q-0.5625 0 -1.09375 -0.234375q-0.53125 -0.234375 -0.9375 -0.65625q-0.40625 -0.4375 -0.65625 -1.046875q-0.25 -0.609375 -0.25 -1.390625q0 -0.875 0.25 -1.796875q0.25 -0.9375 0.671875 -1.8125q0.4375 -0.890625 1.03125 -1.671875q0.59375 -0.78125 1.296875 -1.3593712q0.703125 -0.59375 1.484375 -0.9375q0.78125 -0.359375 1.578125 -0.359375q0.28125 0 0.421875 0.109375q0.15625 0.109375 0.25 0.25q0.109375 0.125 0.203125 0.265625q0.09375 0.125 0.234375 0.171875q0.140625 0.0625 0.28125 0.078125q0.15625 0.015625 0.296875 0.015625q0.140625 0 0.265625 0q0.140625 0 0.265625 0q0.171875 0 0.328125 0.03125q0.15625 0.03125 0.265625 0.15625q0.125 0.109375 0.1875 0.328125q0.0625 0.20312119 0.0625 0.5624962q0 0.5625 -0.125 1.25q-0.109375 0.6875 -0.25 1.40625q-0.140625 0.71875 -0.265625 1.453125q-0.109375 0.71875 -0.109375 1.359375q0 0.546875 0.09375 0.859375q0.109375 0.3125 0.4375 0.3125q0.25 0 0.515625 -0.125q0.265625 -0.125 0.53125 -0.3125q0.28125 -0.203125 0.5625 -0.453125q0.28125 -0.265625 0.515625 -0.53125q0.578125 -0.625 1.171875 -1.421875l0.5625 2.59375zm-10.015625 -0.921875q0 0.296875 0.03125 0.578125q0.046875 0.265625 0.15625 0.484375q0.109375 0.21875 0.28125 0.359375q0.171875 0.125 0.453125 0.125q0.421875 0 0.765625 -0.375q0.359375 -0.375 0.609375 -0.90625q0.265625 -0.53125 0.421875 -1.09375q0.171875 -0.5625 0.21875 -0.9375l0.703125 -3.4375q-0.46875 0 -0.9375 0.25q-0.453125 0.234375 -0.859375 0.640625q-0.40625 0.40625 -0.75 0.9375q-0.328125 0.53125 -0.578125 1.109375q-0.25 0.578125 -0.390625 1.171875q-0.125 0.578125 -0.125 1.09375zm8.625 1.34375q0 -0.515625 0.0625 -1.203125q0.0625 -0.6875 0.15625 -1.4375q0.09375 -0.765625 0.234375 -1.546875q0.140625 -0.796875 0.28125 -1.515625q0.15625 -0.71875 0.3125 -1.3125q0.15625 -0.5937462 0.296875 -0.9843712q0.09375 -0.265625 0.1875 -0.40625q0.09375 -0.15625 0.21875 -0.234375q0.125 -0.09375 0.296875 -0.125q0.1875 -0.03125 0.46875 -0.03125q0.296875 0 0.46875 0.03125q0.171875 0.03125 0.25 0.140625q0.078125 0.109375 0.09375 0.328125q0.03125 0.203125 0.03125 0.5625q0 0.4375 0 1.0624962q0 0.609375 0.015625 1.203125l0.125 0q0.234375 -0.46875 0.53125 -1.046875q0.296875 -0.578125 0.671875 -1.0781212q0.390625 -0.515625 0.875 -0.859375q0.5 -0.34375 1.15625 -0.34375q0.21875 0 0.421875 0.078125q0.21875 0.078125 0.375 0.21875q0.15625 0.140625 0.25 0.34375q0.09375 0.203125 0.09375 0.453125q0 0.203125 -0.0625 0.5624962q-0.046875 0.359375 -0.125 0.75q-0.0625 0.390625 -0.125 0.765625q-0.0625 0.359375 -0.0625 0.609375q0 0.421875 0.078125 0.703125q0.09375 0.28125 0.21875 0.453125q0.140625 0.171875 0.3125 0.25q0.171875 0.0625 0.359375 0.0625q0.515625 0 1.078125 -0.234375q0.5625 -0.234375 1.03125 -0.53125q0.5625 -0.34375 1.078125 -0.765625l-0.171875 2.734375q-0.296875 0.203125 -0.6875 0.453125q-0.390625 0.234375 -0.828125 0.453125q-0.4375 0.21875 -0.921875 0.375q-0.46875 0.140625 -0.953125 0.140625q-0.890625 0 -1.4375 -0.359375q-0.53125 -0.359375 -0.84375 -0.9375q-0.3125 -0.578125 -0.46875 -1.296875q-0.15625 -0.71875 -0.25 -1.46875l-0.1875 0l-2.09375 5.859375q-0.15625 0.453125 -0.3125 0.75q-0.140625 0.296875 -0.296875 0.484375q-0.15625 0.1875 -0.328125 0.265625q-0.171875 0.078125 -0.390625 0.078125q-0.46875 0 -0.765625 -0.203125q-0.296875 -0.203125 -0.453125 -0.546875q-0.15625 -0.359375 -0.21875 -0.796875q-0.046875 -0.4375 -0.046875 -0.90625zm17.25 -0.046875q-0.421875 0.390625 -1.046875 0.828125q-0.625 0.4375 -1.359375 0.8125q-0.71875 0.359375 -1.484375 0.609375q-0.75 0.25 -1.421875 0.25q-0.609375 0 -1.03125 -0.171875q-0.421875 -0.171875 -0.6875 -0.46875q-0.25 -0.3125 -0.359375 -0.75q-0.109375 -0.4375 -0.109375 -0.96875q0 -0.734375 0.171875 -1.703125q0.171875 -0.984375 0.40625 -2.03125q0.25 -1.0625 0.53125 -2.09375q0.28125 -1.046875 0.484375 -1.9218712q0.078125 -0.3125 0.328125 -0.53125q0.25 -0.21875 0.5625 -0.34375q0.3125 -0.140625 0.640625 -0.203125q0.328125 -0.0625 0.609375 -0.0625q0.484375 0 0.65625 0.1875q0.1875 0.171875 0.1875 0.484375q0 0.25 -0.125 0.734375q-0.109375 0.4843712 -0.296875 1.1093712q-0.171875 0.609375 -0.375 1.328125q-0.1875 0.703125 -0.375 1.421875q-0.171875 0.703125 -0.296875 1.375q-0.109375 0.671875 -0.109375 1.203125q0 0.53125 0.109375 0.84375q0.125 0.3125 0.484375 0.3125q0.421875 0 0.9375 -0.296875q0.515625 -0.296875 1.046875 -0.703125q0.53125 -0.421875 1.03125 -0.859375q0.5 -0.453125 0.890625 -0.765625l0 2.375zm-5.234375 -12.046871q0 -0.265625 0.109375 -0.609375q0.125 -0.34375 0.390625 -0.640625q0.265625 -0.296875 0.703125 -0.5q0.4375 -0.203125 1.09375 -0.203125q0.40625 0 0.765625 0.09375q0.375 0.09375 0.640625 0.296875q0.265625 0.1875 0.421875 0.5q0.15625 0.3125 0.15625 0.75q0 0.390625 -0.125 0.765625q-0.125 0.375 -0.40625 0.671875q-0.28125 0.296875 -0.71875 0.484375q-0.421875 0.171875 -1.015625 0.171875q-1.03125 0 -1.53125 -0.484375q-0.484375 -0.484375 -0.484375 -1.296875zm4.0273438 10.046871q0.65625 -0.5625 1.0625 -0.9375q0.421875 -0.375 0.703125 -0.6875q0.296875 -0.3125 0.53125 -0.625q0.25 -0.3125 0.578125 -0.75q0.328125 -0.4375 0.796875 -1.0625q0.46875 -0.625 1.21875 -1.5624962q0.15625 -0.21875 0.34375 -0.40625q0.1875 -0.203125 0.40625 -0.359375q0.234375 -0.15625 0.5 -0.25q0.28125 -0.109375 0.625 -0.109375q0.5625 0 0.859375 0.125q0.3125 0.125 0.453125 0.296875q0.140625 0.171875 0.15625 0.375q0.03125 0.1875 0.03125 0.328125q0 0.28125 -0.234375 0.6249962q-0.21875 0.328125 -0.484375 0.65625q-0.265625 0.3125 -0.515625 0.578125q-0.234375 0.265625 -0.265625 0.390625q0 0.359375 0.046875 0.65625q0.0625 0.296875 0.140625 0.59375q0.09375 0.28125 0.1875 0.609375q0.09375 0.3125 0.171875 0.734375q0.09375 0.421875 0.140625 0.984375q0.0625 0.546875 0.0625 1.296875q0.421875 -0.28125 0.90625 -0.5q0.484375 -0.234375 1.015625 -0.484375q0.53125 -0.25 1.078125 -0.546875q0.5625 -0.296875 1.125 -0.71875l0.015625 2.625q-0.734375 0.5625 -1.6875 1.0625q-0.953125 0.484375 -2.0 0.859375q-1.046875 0.375 -2.125 0.59375q-1.078125 0.21875 -2.03125 0.21875q-0.6875 0 -1.296875 -0.125q-0.59375 -0.140625 -1.046875 -0.40625q-0.453125 -0.28125 -0.734375 -0.71875q-0.28125 -0.453125 -0.328125 -1.09375q-0.171875 0.046875 -0.328125 0.0625q-0.15625 0 -0.3125 0q-0.1875 0 -0.359375 0q-0.15625 -0.015625 -0.28125 -0.09375q-0.109375 -0.078125 -0.1875 -0.25q-0.0625 -0.171875 -0.0625 -0.484375q0 -0.28125 0.140625 -0.515625q0.140625 -0.25 0.328125 -0.4375q0.1875 -0.1875 0.375 -0.328125q0.1875 -0.140625 0.28125 -0.21875zm1.5 1.5q0.140625 0 0.3125 0.171875q0.171875 0.171875 0.390625 0.390625q0.21875 0.203125 0.515625 0.390625q0.296875 0.171875 0.671875 0.171875q0.453125 0 0.75 -0.15625q0.296875 -0.15625 0.46875 -0.40625q0.1875 -0.25 0.25 -0.578125q0.078125 -0.34375 0.078125 -0.703125q0 -0.3125 -0.046875 -0.640625q-0.03125 -0.328125 -0.109375 -0.625q-0.0625 -0.296875 -0.140625 -0.5625q-0.0625 -0.265625 -0.125 -0.453125l-3.015625 3.0zm13.886719 0.8125q0 -0.15625 0.015625 -0.4375q0.03125 -0.28125 0.078125 -0.640625q0.046875 -0.375 0.109375 -0.765625q0.0625 -0.40625 0.109375 -0.8125q0.140625 -0.9375 0.328125 -2.015625l-0.1875 0q-0.140625 0.171875 -0.328125 0.53125q-0.171875 0.34375 -0.5 1.03125q-0.328125 0.671875 -0.84375 1.765625q-0.5 1.078125 -1.3125 2.703125q-0.234375 0.484375 -0.546875 0.65625q-0.3125 0.171875 -0.6875 0.171875q-0.46875 0 -0.765625 -0.203125q-0.296875 -0.203125 -0.453125 -0.546875q-0.15625 -0.359375 -0.21875 -0.796875q-0.046875 -0.4375 -0.046875 -0.90625q0 -0.484375 0.0625 -1.140625q0.0625 -0.65625 0.15625 -1.375q0.09375 -0.734375 0.203125 -1.484375q0.125 -0.75 0.265625 -1.4375q0.140625 -0.703125 0.28125 -1.265625q0.140625 -0.5781212 0.25 -0.9531212q0.125 -0.375 0.21875 -0.59375q0.109375 -0.21875 0.234375 -0.34375q0.140625 -0.125 0.328125 -0.15625q0.1875 -0.046875 0.484375 -0.046875q0.453125 0 0.703125 0.03125q0.25 0.03125 0.375 0.140625q0.125 0.109375 0.140625 0.328125q0.03125 0.203125 0.03125 0.5625q0 0.203125 -0.03125 0.46875q-0.015625 0.24999619 -0.046875 0.5468712q-0.03125 0.28125 -0.078125 0.59375q-0.03125 0.3125 -0.078125 0.609375q-0.109375 0.6875 -0.234375 1.421875l0.140625 0.140625q0.015625 -0.03125 0.234375 -0.4375q0.234375 -0.40625 0.5625 -0.984375q0.34375 -0.578125 0.734375 -1.203125q0.390625 -0.625 0.734375 -1.1093712q0.34375 -0.484375 0.71875 -0.796875q0.390625 -0.3125 0.90625 -0.3125q0.5 0 0.84375 0.296875q0.359375 0.28125 0.359375 0.796875q0 0.4687462 -0.0625 0.8749962q-0.0625 0.40625 -0.15625 0.796875q-0.078125 0.390625 -0.171875 0.765625q-0.09375 0.359375 -0.171875 0.75q-0.0625 0.265625 -0.078125 0.34375q0 0.0625 0 0.078125l0.125 0.140625q0.015625 -0.03125 0.265625 -0.4375q0.25 -0.40625 0.609375 -0.96875q0.359375 -0.578125 0.75 -1.203125q0.40625 -0.640625 0.765625 -1.1249962q0.34375 -0.46875 0.671875 -0.78125q0.34375 -0.328125 0.84375 -0.328125q0.546875 0 0.921875 0.296875q0.390625 0.28125 0.390625 0.796875q0 0.8124962 -0.09375 1.5468712q-0.078125 0.71875 -0.1875 1.421875q-0.09375 0.703125 -0.1875 1.421875q-0.078125 0.71875 -0.078125 1.53125q0 0.640625 0.15625 1.046875q0.171875 0.390625 0.40625 0.390625q0.25 0 0.515625 -0.109375q0.265625 -0.109375 0.546875 -0.265625q0.28125 -0.171875 0.546875 -0.390625q0.28125 -0.21875 0.53125 -0.453125q0.5625 -0.53125 1.125 -1.21875l0.203125 2.765625q-0.515625 0.421875 -1.03125 0.859375q-0.5 0.4375 -1.078125 0.796875q-0.5625 0.359375 -1.25 0.59375q-0.671875 0.21875 -1.53125 0.21875q-0.421875 0 -0.703125 -0.265625q-0.28125 -0.28125 -0.46875 -0.765625q-0.171875 -0.5 -0.25 -1.171875q-0.078125 -0.671875 -0.078125 -1.453125q0 -0.734375 0.046875 -1.5625q0.0625 -0.828125 0.15625 -1.671875l-0.171875 0l-2.375 6.0625q-0.3125 0.484375 -0.6875 0.65625q-0.375 0.171875 -0.859375 0.171875q-0.375 0 -0.609375 -0.203125q-0.21875 -0.203125 -0.34375 -0.53125q-0.125 -0.328125 -0.171875 -0.703125q-0.03125 -0.390625 -0.03125 -0.75zm20.511719 2.1875q-1.078125 0 -1.890625 -0.390625q-0.8125 -0.40625 -1.375 -1.078125q-0.546875 -0.671875 -0.828125 -1.546875q-0.28125 -0.875 -0.28125 -1.828125q0 -0.671875 0.140625 -1.40625q0.140625 -0.75 0.40625 -1.453125q0.28125 -0.71875 0.6875 -1.359375q0.40625 -0.640625 0.9375 -1.1249962q0.53125 -0.484375 1.1875 -0.765625q0.65625 -0.296875 1.453125 -0.296875q0.65625 0 1.21875 0.203125q0.578125 0.203125 0.984375 0.578125q0.40625 0.359375 0.625 0.8593712q0.234375 0.484375 0.234375 1.0625q0 0.40625 -0.109375 0.796875q-0.09375 0.375 -0.3125 0.6875q-0.203125 0.3125 -0.5 0.5q-0.28125 0.1875 -0.640625 0.1875q-0.5625 0 -0.734375 -0.296875q-0.15625 -0.296875 -0.15625 -0.8125q0 -0.203125 0.015625 -0.4375q0.015625 -0.234375 0.015625 -0.421875q0 -0.28125 -0.0625 -0.46875q-0.0625 -0.1875 -0.25 -0.1875q-0.484375 0 -0.828125 0.234375q-0.34375 0.21875 -0.578125 0.59375q-0.234375 0.359375 -0.375 0.828125q-0.140625 0.46875 -0.234375 0.921875q-0.078125 0.453125 -0.109375 0.875q-0.015625 0.40625 -0.015625 0.6875q0 0.421875 0.078125 0.890625q0.078125 0.453125 0.28125 0.84375q0.21875 0.375 0.578125 0.625q0.359375 0.25 0.9375 0.25q0.5625 0 1.234375 -0.34375q0.6875 -0.34375 1.375 -0.875q0.6875 -0.53125 1.296875 -1.15625q0.625 -0.640625 1.078125 -1.203125l0.8125 1.359375q-0.890625 1.25 -1.90625 2.234375q-0.4375 0.421875 -0.953125 0.828125q-0.5 0.390625 -1.0625 0.703125q-0.546875 0.3125 -1.15625 0.515625q-0.59375 0.1875 -1.21875 0.1875zm9.046875 -7.296875q0.484375 -0.625 1.078125 -1.34375q0.59375 -0.734375 1.234375 -1.3593712q0.65625 -0.625 1.28125 -1.046875q0.640625 -0.421875 1.203125 -0.421875q0.140625 0 0.3125 0.0625q0.1875 0.046875 0.34375 0.1875q0.15625 0.140625 0.265625 0.390625q0.109375 0.25 0.109375 0.65625q0 0.7968712 -0.234375 1.5624962q-0.21875 0.75 -0.484375 1.5q-0.265625 0.75 -0.484375 1.546875q-0.203125 0.78125 -0.203125 1.640625q0 0.46875 0.140625 0.75q0.140625 0.28125 0.359375 0.28125q0.28125 0 0.59375 -0.109375q0.3125 -0.125 0.625 -0.3125q0.328125 -0.1875 0.625 -0.421875q0.3125 -0.25 0.578125 -0.515625q0.640625 -0.59375 1.265625 -1.359375l0.203125 3.125q-0.21875 0.15625 -0.546875 0.40625q-0.3125 0.25 -0.703125 0.53125q-0.390625 0.265625 -0.859375 0.546875q-0.453125 0.28125 -0.921875 0.5q-0.453125 0.21875 -0.921875 0.359375q-0.453125 0.140625 -0.875 0.140625q-0.640625 0 -1.125 -0.34375q-0.46875 -0.34375 -0.78125 -0.875q-0.296875 -0.546875 -0.453125 -1.171875q-0.15625 -0.640625 -0.15625 -1.203125q0 -0.375 0.09375 -0.828125q0.109375 -0.46875 0.25 -0.9375q0.15625 -0.46875 0.328125 -0.90625q0.1875 -0.453125 0.34375 -0.796875q0.15625 -0.359375 0.265625 -0.578125q0.125 -0.21875 0.171875 -0.265625l-0.25 -0.03125q-0.203125 0.125 -0.6875 0.65625q-0.46875 0.53125 -1.0625 1.34375q-0.59375 0.796875 -1.234375 1.796875q-0.640625 1.0 -1.15625 2.0625q-0.25 0.53125 -0.421875 0.921875q-0.15625 0.390625 -0.328125 0.640625q-0.15625 0.25 -0.34375 0.390625q-0.1875 0.125 -0.46875 0.125q-0.390625 0 -0.625 -0.21875q-0.21875 -0.234375 -0.34375 -0.59375q-0.109375 -0.375 -0.140625 -0.84375q-0.03125 -0.46875 -0.03125 -0.953125q0 -0.796875 0.015625 -2.0625q0.015625 -1.265625 0.109375 -2.8125q0.09375 -1.546875 0.265625 -3.2499962q0.1875 -1.71875 0.5 -3.390625q0.328125 -1.671875 0.8125 -3.1875q0.484375 -1.515625 1.171875 -2.671875q0.703125 -1.15625 1.640625 -1.828125q0.9375 -0.6875 2.15625 -0.6875q0.640625 0 1.046875 0.1875q0.40625 0.1875 0.640625 0.53125q0.234375 0.328125 0.328125 0.8125q0.09375 0.46875 0.09375 1.0625q0 0.859375 -0.25 1.921875q-0.234375 1.046875 -0.640625 2.1875q-0.40625 1.140625 -0.921875 2.3125q-0.515625 1.15625 -1.0625 2.25q-0.53125 1.09375 -1.0625 2.0781212q-0.515625 0.96875 -0.90625 1.703125l0.234375 0.15625zm1.046875 -7.234371q0.6875 -1.796875 1.0 -3.015625q0.3125 -1.234375 0.3125 -1.828125q0 -0.890625 -0.234375 -0.890625q-0.3125 0 -0.90625 1.0q-0.59375 1.0 -1.40625 2.890625q-0.203125 0.640625 -0.375 1.34375q-0.171875 0.6875 -0.3125 1.375q-0.125 0.6875 -0.234375 1.34375q-0.109375 0.65625 -0.1875 1.265625q-0.203125 1.3906212 -0.3125 2.7187462q0.3125 -0.734375 0.6875 -1.5937462q0.375 -0.875 0.734375 -1.71875q0.375 -0.859375 0.6875 -1.609375q0.328125 -0.75 0.546875 -1.28125zm10.886719 14.531246q-1.109375 0 -1.9375 -0.390625q-0.828125 -0.40625 -1.375 -1.078125q-0.546875 -0.671875 -0.828125 -1.5625q-0.265625 -0.890625 -0.265625 -1.859375q0 -0.65625 0.125 -1.390625q0.125 -0.734375 0.390625 -1.4375q0.265625 -0.703125 0.65625 -1.328125q0.40625 -0.640625 0.9375 -1.1249962q0.53125 -0.5 1.1875 -0.78125q0.671875 -0.28125 1.484375 -0.28125q0.65625 0 1.21875 0.21875q0.5625 0.203125 0.96875 0.578125q0.421875 0.375 0.65625 0.9218712q0.234375 0.53125 0.234375 1.203125q0 0.734375 -0.359375 1.46875q-0.359375 0.71875 -1.0 1.359375q-0.625 0.640625 -1.5 1.15625q-0.875 0.5 -1.890625 0.78125q0.171875 0.3125 0.34375 0.53125q0.171875 0.203125 0.34375 0.328125q0.1875 0.109375 0.375 0.15625q0.1875 0.046875 0.421875 0.046875q0.703125 0 1.46875 -0.28125q0.78125 -0.28125 1.515625 -0.703125q0.75 -0.421875 1.40625 -0.921875q0.65625 -0.5 1.109375 -0.9375l1.515625 1.5625q-1.03125 1.0625 -2.1875 1.890625q-0.515625 0.34375 -1.09375 0.6875q-0.578125 0.34375 -1.21875 0.609375q-0.640625 0.265625 -1.328125 0.421875q-0.671875 0.15625 -1.375 0.15625zm-1.5625 -5.515625q0.421875 0 0.921875 -0.203125q0.5 -0.21875 0.921875 -0.5625q0.421875 -0.34375 0.71875 -0.734375q0.296875 -0.40625 0.296875 -0.78125q0 -0.53125 -0.203125 -0.859375q-0.1875 -0.34375 -0.46875 -0.34375q-0.5 0 -0.859375 0.1875q-0.359375 0.1875 -0.609375 0.484375q-0.234375 0.296875 -0.375 0.6875q-0.140625 0.375 -0.21875 0.765625q-0.078125 0.375 -0.109375 0.75q-0.015625 0.359375 -0.015625 0.609375zm10.441406 5.515625q-1.078125 0 -1.890625 -0.390625q-0.8125 -0.40625 -1.375 -1.078125q-0.546875 -0.671875 -0.828125 -1.546875q-0.28125 -0.875 -0.28125 -1.828125q0 -0.671875 0.140625 -1.40625q0.140625 -0.75 0.40625 -1.453125q0.28125 -0.71875 0.6875 -1.359375q0.40625 -0.640625 0.9375 -1.1249962q0.53125 -0.484375 1.1875 -0.765625q0.65625 -0.296875 1.453125 -0.296875q0.65625 0 1.21875 0.203125q0.578125 0.203125 0.984375 0.578125q0.40625 0.359375 0.625 0.8593712q0.234375 0.484375 0.234375 1.0625q0 0.40625 -0.109375 0.796875q-0.09375 0.375 -0.3125 0.6875q-0.203125 0.3125 -0.5 0.5q-0.28125 0.1875 -0.640625 0.1875q-0.5625 0 -0.734375 -0.296875q-0.15625 -0.296875 -0.15625 -0.8125q0 -0.203125 0.015625 -0.4375q0.015625 -0.234375 0.015625 -0.421875q0 -0.28125 -0.0625 -0.46875q-0.0625 -0.1875 -0.25 -0.1875q-0.484375 0 -0.828125 0.234375q-0.34375 0.21875 -0.578125 0.59375q-0.234375 0.359375 -0.375 0.828125q-0.140625 0.46875 -0.234375 0.921875q-0.078125 0.453125 -0.109375 0.875q-0.015625 0.40625 -0.015625 0.6875q0 0.421875 0.078125 0.890625q0.078125 0.453125 0.28125 0.84375q0.21875 0.375 0.578125 0.625q0.359375 0.25 0.9375 0.25q0.5625 0 1.234375 -0.34375q0.6875 -0.34375 1.375 -0.875q0.6875 -0.53125 1.296875 -1.15625q0.625 -0.640625 1.078125 -1.203125l0.8125 1.359375q-0.890625 1.25 -1.90625 2.234375q-0.4375 0.421875 -0.953125 0.828125q-0.5 0.390625 -1.0625 0.703125q-0.546875 0.3125 -1.15625 0.515625q-0.59375 0.1875 -1.21875 0.1875zm8.765625 -6.546875q0.421875 -0.546875 0.921875 -1.1875q0.5 -0.640625 0.984375 -1.21875q0.5 -0.59375 0.890625 -1.0468712q0.40625 -0.46875 0.640625 -0.625q0.375 -0.265625 0.890625 -0.4375q0.53125 -0.1875 1.171875 -0.1875q0.328125 0 0.625 0.15625q0.3125 0.140625 0.53125 0.421875q0.21875 0.28125 0.34375 0.6875q0.140625 0.3906212 0.140625 0.8906212q0 0.484375 -0.234375 0.96875q-0.234375 0.484375 -0.59375 0.984375q-0.34375 0.484375 -0.765625 0.984375q-0.40625 0.484375 -0.765625 0.984375q-0.34375 0.5 -0.578125 1.0q-0.234375 0.484375 -0.234375 0.96875q0 0.421875 0.203125 0.609375q0.203125 0.171875 0.640625 0.171875q0.234375 0 0.5 -0.15625q0.28125 -0.15625 0.578125 -0.40625q0.296875 -0.265625 0.59375 -0.578125q0.296875 -0.3125 0.5625 -0.640625q0.28125 -0.328125 0.53125 -0.625q0.25 -0.3125 0.453125 -0.515625l0.703125 2.875q-0.375 0.515625 -0.9375 0.96875q-0.546875 0.453125 -1.203125 0.796875q-0.640625 0.328125 -1.34375 0.515625q-0.6875 0.1875 -1.34375 0.1875q-0.84375 0 -1.375 -0.203125q-0.53125 -0.203125 -0.84375 -0.546875q-0.296875 -0.34375 -0.40625 -0.765625q-0.109375 -0.4375 -0.109375 -0.890625q0 -0.265625 0.0625 -0.65625q0.0625 -0.390625 0.234375 -0.875q0.1875 -0.5 0.515625 -1.09375q0.328125 -0.59375 0.859375 -1.28125q0.21875 -0.203125 0.390625 -0.375q0.171875 -0.171875 0.296875 -0.296875q0.140625 -0.140625 0.203125 -0.25q0.078125 -0.125 0.078125 -0.25q0 -0.25 -0.09375 -0.40625q-0.09375 -0.15625 -0.25 -0.15625q-0.203125 0 -0.515625 0.265625q-0.3125 0.25 -0.6875 0.90625l-3.453125 6.046875q-0.265625 0.46875 -0.5625 0.65625q-0.28125 0.171875 -0.65625 0.171875q-0.5 0 -0.796875 -0.21875q-0.296875 -0.21875 -0.453125 -0.578125q-0.140625 -0.375 -0.1875 -0.859375q-0.03125 -0.484375 -0.03125 -1.046875q0 -0.65625 0.046875 -1.75q0.046875 -1.109375 0.140625 -2.421875q0.09375 -1.328125 0.25 -2.765625q0.15625 -1.4531212 0.375 -2.8124962q0.078125 -0.46875 0.203125 -1.15625q0.140625 -0.6875 0.328125 -1.46875q0.203125 -0.796875 0.453125 -1.640625q0.265625 -0.84375 0.609375 -1.640625q0.359375 -0.8125 0.78125 -1.53125q0.4375 -0.734375 0.96875 -1.28125q0.546875 -0.546875 1.1875 -0.859375q0.65625 -0.3125 1.40625 -0.3125q0.609375 0 0.984375 0.1875q0.390625 0.1875 0.609375 0.546875q0.234375 0.34375 0.328125 0.828125q0.09375 0.46875 0.09375 1.03125q0 1.0 -0.25 2.15625q-0.25 1.140625 -0.640625 2.296875q-0.375 1.15625 -0.84375 2.25q-0.453125 1.078125 -0.875 1.96875q-0.421875 0.875 -0.75 1.4843712q-0.3125 0.59375 -0.421875 0.78125l-1.390625 2.078125l0.28125 0.1875zm2.296875 -13.171871q-0.375 0 -0.65625 0.234375q-0.265625 0.234375 -0.5 0.671875q-0.234375 0.4375 -0.484375 1.0625q-0.234375 0.609375 -0.546875 1.375q-0.1875 0.671875 -0.34375 1.390625q-0.15625 0.703125 -0.28125 1.421875q-0.125 0.703125 -0.234375 1.40625q-0.09375 0.6875 -0.171875 1.296875q-0.171875 1.4374962 -0.28125 2.8281212q0.265625 -0.765625 0.5625 -1.671875q0.3125 -0.9218712 0.609375 -1.7968712q0.296875 -0.890625 0.5625 -1.671875q0.265625 -0.796875 0.4375 -1.34375q0.078125 -0.265625 0.234375 -0.640625q0.15625 -0.390625 0.328125 -0.828125q0.171875 -0.453125 0.34375 -0.9375q0.1875 -0.484375 0.328125 -0.921875q0.15625 -0.453125 0.25 -0.828125q0.09375 -0.390625 0.09375 -0.671875q0 -0.375 -0.25 -0.375zm9.519531 19.718746q-1.109375 0 -1.9375 -0.390625q-0.828125 -0.40625 -1.375 -1.078125q-0.546875 -0.671875 -0.828125 -1.5625q-0.265625 -0.890625 -0.265625 -1.859375q0 -0.65625 0.125 -1.390625q0.125 -0.734375 0.390625 -1.4375q0.265625 -0.703125 0.65625 -1.328125q0.40625 -0.640625 0.9375 -1.1249962q0.53125 -0.5 1.1875 -0.78125q0.671875 -0.28125 1.484375 -0.28125q0.65625 0 1.21875 0.21875q0.5625 0.203125 0.96875 0.578125q0.421875 0.375 0.65625 0.9218712q0.234375 0.53125 0.234375 1.203125q0 0.734375 -0.359375 1.46875q-0.359375 0.71875 -1.0 1.359375q-0.625 0.640625 -1.5 1.15625q-0.875 0.5 -1.890625 0.78125q0.171875 0.3125 0.34375 0.53125q0.171875 0.203125 0.34375 0.328125q0.1875 0.109375 0.375 0.15625q0.1875 0.046875 0.421875 0.046875q0.703125 0 1.46875 -0.28125q0.78125 -0.28125 1.515625 -0.703125q0.75 -0.421875 1.40625 -0.921875q0.65625 -0.5 1.109375 -0.9375l1.515625 1.5625q-1.03125 1.0625 -2.1875 1.890625q-0.515625 0.34375 -1.09375 0.6875q-0.578125 0.34375 -1.21875 0.609375q-0.640625 0.265625 -1.328125 0.421875q-0.671875 0.15625 -1.375 0.15625zm-1.5625 -5.515625q0.421875 0 0.921875 -0.203125q0.5 -0.21875 0.921875 -0.5625q0.421875 -0.34375 0.71875 -0.734375q0.296875 -0.40625 0.296875 -0.78125q0 -0.53125 -0.203125 -0.859375q-0.1875 -0.34375 -0.46875 -0.34375q-0.5 0 -0.859375 0.1875q-0.359375 0.1875 -0.609375 0.484375q-0.234375 0.296875 -0.375 0.6875q-0.140625 0.375 -0.21875 0.765625q-0.078125 0.375 -0.109375 0.75q-0.015625 0.359375 -0.015625 0.609375zm6.8164062 3.0625q0 -0.515625 0.0625 -1.203125q0.0625 -0.6875 0.15625 -1.4375q0.09375 -0.765625 0.234375 -1.546875q0.140625 -0.796875 0.28125 -1.515625q0.15625 -0.71875 0.3125 -1.3125q0.15625 -0.5937462 0.296875 -0.9843712q0.09375 -0.265625 0.1875 -0.40625q0.09375 -0.15625 0.21875 -0.234375q0.125 -0.09375 0.296875 -0.125q0.1875 -0.03125 0.46875 -0.03125q0.296875 0 0.46875 0.03125q0.171875 0.03125 0.25 0.140625q0.078125 0.109375 0.09375 0.328125q0.03125 0.203125 0.03125 0.5625q0 0.4375 0 1.0624962q0 0.609375 0.015625 1.203125l0.125 0q0.234375 -0.46875 0.53125 -1.046875q0.296875 -0.578125 0.671875 -1.0781212q0.390625 -0.515625 0.875 -0.859375q0.5 -0.34375 1.15625 -0.34375q0.21875 0 0.421875 0.078125q0.21875 0.078125 0.375 0.21875q0.15625 0.140625 0.25 0.34375q0.09375 0.203125 0.09375 0.453125q0 0.203125 -0.0625 0.5624962q-0.046875 0.359375 -0.125 0.75q-0.0625 0.390625 -0.125 0.765625q-0.0625 0.359375 -0.0625 0.609375q0 0.421875 0.078125 0.703125q0.09375 0.28125 0.21875 0.453125q0.140625 0.171875 0.3125 0.25q0.171875 0.0625 0.359375 0.0625q0.515625 0 1.078125 -0.234375q0.5625 -0.234375 1.03125 -0.53125q0.5625 -0.34375 1.078125 -0.765625l-0.171875 2.734375q-0.296875 0.203125 -0.6875 0.453125q-0.390625 0.234375 -0.828125 0.453125q-0.4375 0.21875 -0.921875 0.375q-0.46875 0.140625 -0.953125 0.140625q-0.890625 0 -1.4375 -0.359375q-0.53125 -0.359375 -0.84375 -0.9375q-0.3125 -0.578125 -0.46875 -1.296875q-0.15625 -0.71875 -0.25 -1.46875l-0.1875 0l-2.09375 5.859375q-0.15625 0.453125 -0.3125 0.75q-0.140625 0.296875 -0.296875 0.484375q-0.15625 0.1875 -0.328125 0.265625q-0.171875 0.078125 -0.390625 0.078125q-0.46875 0 -0.765625 -0.203125q-0.296875 -0.203125 -0.453125 -0.546875q-0.15625 -0.359375 -0.21875 -0.796875q-0.046875 -0.4375 -0.046875 -0.90625z" fill-rule="nonzero"></path></g></svg>

