<?xml version="1.0" standalone="yes"?>

<svg version="1.1" viewBox="0.0 0.0 760.0 492.0" fill="none" stroke="none" stroke-linecap="square" stroke-miterlimit="10" xmlns="http://www.w3.org/2000/svg" xmlns:xlink="http://www.w3.org/1999/xlink"><clipPath id="p.0"><path d="m0 0l760.0 0l0 492.0l-760.0 0l0 -492.0z" clip-rule="nonzero"></path></clipPath><g clip-path="url(#p.0)"><path fill="#000000" fill-opacity="0.0" d="m0 0l760.52496 0l0 492.59842l-760.52496 0z" fill-rule="nonzero"></path><path fill="#d5a6bd" d="m108.03674 336.8189l0 -90.5197l83.74803 90.5197z" fill-rule="nonzero"></path><path fill="#ead1dc" d="m191.78477 246.29921l0 90.5197l-83.74803 -90.5197z" fill-rule="nonzero"></path><path fill="#f4cccc" d="m108.03674 246.29921l0 -90.519684l83.74803 90.519684z" fill-rule="nonzero"></path><path fill="#e6b8af" d="m191.78477 155.77953l0 90.519684l-83.74803 -90.519684z" fill-rule="nonzero"></path><path fill="#dd7e6b" d="m108.03674 155.77953l0 -90.519684l83.74803 90.519684z" fill-rule="nonzero"></path><path fill="#ea9999" d="m191.78477 65.25984l0 90.519684l-83.74803 -90.519684z" fill-rule="nonzero"></path><path fill="#cc4125" d="m24.288713 155.77953l0 -90.519684l83.74803 90.519684z" fill-rule="nonzero"></path><path fill="#e06666" d="m108.03674 65.25984l0 90.519684l-83.74803 -90.519684z" fill-rule="nonzero"></path><path fill="#f6b26b" d="m191.78477 155.77953l0 -90.519684l83.74803 90.519684z" fill-rule="nonzero"></path><path fill="#ffd966" d="m275.5328 65.25984l0 90.519684l-83.74803 -90.519684z" fill-rule="nonzero"></path><path fill="#ea9999" d="m380.99738 336.8189l0 -90.5197l83.74802 90.5197z" fill-rule="nonzero"></path><path fill="#f6b26b" d="m464.7454 246.29921l0 90.5197l-83.74802 -90.5197z" fill-rule="nonzero"></path><path fill="#f9cb9c" d="m380.99738 246.29921l0 -90.519684l83.74802 90.519684z" fill-rule="nonzero"></path><path fill="#fce5cd" d="m464.7454 155.77953l0 90.519684l-83.74802 -90.519684z" fill-rule="nonzero"></path><path fill="#ffe599" d="m380.99738 155.77953l0 -90.519684l83.74802 90.519684z" fill-rule="nonzero"></path><path fill="#f1c232" d="m464.7454 65.25984l0 90.519684l-83.74802 -90.519684z" fill-rule="nonzero"></path><path fill="#ffe599" d="m548.4934 155.77953l0 90.519684l-83.74802 -90.519684z" fill-rule="nonzero"></path><path fill="#ffd966" d="m464.7454 155.77953l0 -90.519684l83.74802 90.519684z" fill-rule="nonzero"></path><path fill="#fff2cc" d="m548.4934 246.29921l0 -90.519684l83.74805 90.519684z" fill-rule="nonzero"></path><path fill="#d9ead3" d="m632.24146 246.29921l0 90.5197l-83.74805 -90.5197z" fill-rule="nonzero"></path><path fill="#d0e0e3" d="m632.24146 336.8189l0 -90.5197l83.74805 90.5197z" fill-rule="nonzero"></path><path fill="#a2c4c9" d="m715.9895 246.29921l0 90.5197l-83.74805 -90.5197z" fill-rule="nonzero"></path><path fill="#76a5af" d="m632.24146 246.29921l0 -90.519684l83.74805 90.519684z" fill-rule="nonzero"></path><path fill="#6d9eeb" d="m715.9895 155.77953l0 90.519684l-83.74805 -90.519684z" fill-rule="nonzero"></path><path fill="#3d85c6" d="m632.24146 155.77953l0 -90.519684l83.74805 90.519684z" fill-rule="nonzero"></path><path fill="#0b5394" d="m715.9895 65.25984l0 90.519684l-83.74805 -90.519684z" fill-rule="nonzero"></path><path fill="#b6d7a8" d="m548.4934 336.8189l0 -90.5197l83.74805 90.5197z" fill-rule="nonzero"></path><path fill="#a64d79" d="m108.03674 427.3386l0 -90.519684l83.74803 90.519684z" fill-rule="nonzero"></path><path fill="#c27ba0" d="m191.78477 336.8189l0 90.519684l-83.74803 -90.519684z" fill-rule="nonzero"></path><path fill="#c27ba0" d="m380.99738 427.3386l0 -90.519684l83.74802 90.519684z" fill-rule="nonzero"></path><path fill="#d5a6bd" d="m464.7454 336.8189l0 90.519684l-83.74802 -90.519684z" fill-rule="nonzero"></path><path fill="#6aa84f" d="m632.24146 336.8189l0 90.519684l-83.74805 -90.519684z" fill-rule="nonzero"></path><path fill="#38761d" d="m632.24146 427.3386l0 -90.519684l83.74805 90.519684z" fill-rule="nonzero"></path><path fill="#93c47d" d="m715.9895 336.8189l0 90.519684l-83.74805 -90.519684z" fill-rule="nonzero"></path><path fill="#000000" fill-opacity="0.0" d="m24.288713 65.25984l251.2441 0" fill-rule="nonzero"></path><path stroke="#000000" stroke-width="2.0" stroke-linejoin="round" stroke-linecap="butt" d="m24.288713 65.25984l251.2441 0" fill-rule="nonzero"></path><path fill="#000000" fill-opacity="0.0" d="m275.5328 65.25984l0 90.519684" fill-rule="nonzero"></path><path stroke="#000000" stroke-width="2.0" stroke-linejoin="round" stroke-linecap="butt" d="m275.5328 65.25984l0 90.519684" fill-rule="nonzero"></path><path fill="#000000" fill-opacity="0.0" d="m275.5328 155.77953l-83.74803 0" fill-rule="nonzero"></path><path stroke="#000000" stroke-width="2.0" stroke-linejoin="round" stroke-linecap="butt" d="m275.5328 155.77953l-83.74803 0" fill-rule="nonzero"></path><path fill="#000000" fill-opacity="0.0" d="m191.78477 155.77953l0 271.55908" fill-rule="nonzero"></path><path stroke="#000000" stroke-width="2.0" stroke-linejoin="round" stroke-linecap="butt" d="m191.78477 155.77953l0 271.55908" fill-rule="nonzero"></path><path fill="#000000" fill-opacity="0.0" d="m191.78477 427.3386l-83.74803 0" fill-rule="nonzero"></path><path stroke="#000000" stroke-width="2.0" stroke-linejoin="round" stroke-linecap="butt" d="m191.78477 427.3386l-83.74803 0" fill-rule="nonzero"></path><path fill="#000000" fill-opacity="0.0" d="m108.03674 427.3386l0 -271.55908" fill-rule="nonzero"></path><path stroke="#000000" stroke-width="2.0" stroke-linejoin="round" stroke-linecap="butt" d="m108.03674 427.3386l0 -271.55908" fill-rule="nonzero"></path><path fill="#000000" fill-opacity="0.0" d="m108.03674 155.77953l-83.74803 0" fill-rule="nonzero"></path><path stroke="#000000" stroke-width="2.0" stroke-linejoin="round" stroke-linecap="butt" d="m108.03674 155.77953l-83.74803 0" fill-rule="nonzero"></path><path fill="#000000" fill-opacity="0.0" d="m24.288713 155.77953l0 -90.519684" fill-rule="nonzero"></path><path stroke="#000000" stroke-width="2.0" stroke-linejoin="round" stroke-linecap="butt" d="m24.288713 155.77953l0 -90.519684" fill-rule="nonzero"></path><path fill="#000000" fill-opacity="0.0" d="m380.99738 65.25984l0 362.07874" fill-rule="nonzero"></path><path stroke="#000000" stroke-width="2.0" stroke-linejoin="round" stroke-linecap="butt" d="m380.99738 65.25984l0 362.07874" fill-rule="nonzero"></path><path fill="#000000" fill-opacity="0.0" d="m380.99738 427.3386l83.74802 0" fill-rule="nonzero"></path><path stroke="#000000" stroke-width="2.0" stroke-linejoin="round" stroke-linecap="butt" d="m380.99738 427.3386l83.74802 0" fill-rule="nonzero"></path><path fill="#000000" fill-opacity="0.0" d="m464.7454 427.3386l0 -271.55908" fill-rule="nonzero"></path><path stroke="#000000" stroke-width="2.0" stroke-linejoin="round" stroke-linecap="butt" d="m464.7454 427.3386l0 -271.55908" fill-rule="nonzero"></path><path fill="#000000" fill-opacity="0.0" d="m464.7454 155.77953l83.74802 90.519684" fill-rule="nonzero"></path><path stroke="#000000" stroke-width="2.0" stroke-linejoin="round" stroke-linecap="butt" d="m464.7454 155.77953l83.74802 90.519684" fill-rule="nonzero"></path><path fill="#000000" fill-opacity="0.0" d="m548.4934 246.29921l0 90.5197" fill-rule="nonzero"></path><path stroke="#000000" stroke-width="2.0" stroke-linejoin="round" stroke-linecap="butt" d="m548.4934 246.29921l0 90.5197" fill-rule="nonzero"></path><path fill="#000000" fill-opacity="0.0" d="m548.4934 336.8189l83.74805 90.519684" fill-rule="nonzero"></path><path stroke="#000000" stroke-width="2.0" stroke-linejoin="round" stroke-linecap="butt" d="m548.4934 336.8189l83.74805 90.519684" fill-rule="nonzero"></path><path fill="#000000" fill-opacity="0.0" d="m632.24146 427.3386l83.74805 0" fill-rule="nonzero"></path><path stroke="#000000" stroke-width="2.0" stroke-linejoin="round" stroke-linecap="butt" d="m632.24146 427.3386l83.74805 0" fill-rule="nonzero"></path><path fill="#000000" fill-opacity="0.0" d="m715.9895 427.3386l0 -362.07874" fill-rule="nonzero"></path><path stroke="#000000" stroke-width="2.0" stroke-linejoin="round" stroke-linecap="butt" d="m715.9895 427.3386l0 -362.07874" fill-rule="nonzero"></path><path fill="#000000" fill-opacity="0.0" d="m715.9895 65.25984l-83.74805 0" fill-rule="nonzero"></path><path stroke="#000000" stroke-width="2.0" stroke-linejoin="round" stroke-linecap="butt" d="m715.9895 65.25984l-83.74805 0" fill-rule="nonzero"></path><path fill="#000000" fill-opacity="0.0" d="m632.24146 65.25984l0 181.03937" fill-rule="nonzero"></path><path stroke="#000000" stroke-width="2.0" stroke-linejoin="round" stroke-linecap="butt" d="m632.24146 65.25984l0 181.03937" fill-rule="nonzero"></path><path fill="#000000" fill-opacity="0.0" d="m632.24146 246.29921l-167.49606 -181.03937" fill-rule="nonzero"></path><path stroke="#000000" stroke-width="2.0" stroke-linejoin="round" stroke-linecap="butt" d="m632.24146 246.29921l-167.49606 -181.03937" fill-rule="nonzero"></path><path fill="#000000" fill-opacity="0.0" d="m464.7454 65.25984l-83.74802 0" fill-rule="nonzero"></path><path stroke="#000000" stroke-width="2.0" stroke-linejoin="round" stroke-linecap="butt" d="m464.7454 65.25984l-83.74802 0" fill-rule="nonzero"></path></g></svg>

